<svg xmlns:dc="http://purl.org/dc/elements/1.1/" xmlns:cc="http://creativecommons.org/ns#" xmlns:rdf="http://www.w3.org/1999/02/22-rdf-syntax-ns#" xmlns:svg="http://www.w3.org/2000/svg" xmlns="http://www.w3.org/2000/svg" xmlns:sodipodi="http://sodipodi.sourceforge.net/DTD/sodipodi-0.dtd" xmlns:inkscape="http://www.inkscape.org/namespaces/inkscape" version="1.1" x="0px" y="0px" viewBox="0 0 100 125"><g transform="translate(0,-952.36218)"><path style="text-indent:0;text-transform:none;direction:ltr;block-progression:tb;baseline-shift:baseline;color:#fafdf3;fill:#fafdf3;enable-background:accumulate;" d="m 17,973.36217 c -4.9341,0 -9,4.066 -9,9 l 0,40.00003 c 0,4.934 4.0659,9 9,9 l 66,0 c 4.9341,0 9,-4.066 9,-9 l 0,-40.00003 c 0,-4.934 -4.0659,-9 -9,-9 l -66,0 z m 0.6562,6 64.7188,0 -30.5312,27.25003 c -1.1639,1.0392 -2.4584,1.0403 -3.625,0 L 17.6562,979.36217 z M 14,984.14337 34.5625,1002.4872 14,1022.2372 14,984.14337 z m 72,0 0,38.06263 -20.5,-19.75 20.5,-18.31263 z m -25,22.34383 19.5938,18.875 -61.1876,0 19.6563,-18.8438 5.1563,4.5938 c 3.2776,2.9224 8.347,2.9271 11.625,0 L 61,1006.4872 z" fill="#000000" fill-opacity="1" stroke="none" marker="none" visibility="visible" display="inline" overflow="visible"/></g></svg>