<svg xmlns="http://www.w3.org/2000/svg" xmlns:xlink="http://www.w3.org/1999/xlink" version="1.1" x="0px" y="0px" viewBox="0 0 100 100" enable-background="new 0 0 100 100" xml:space="preserve"><path fill="#000000" d="M50,68.75c-10.338,0-18.75-8.412-18.75-18.75S39.662,31.25,50,31.25S68.75,39.662,68.75,50  S60.338,68.75,50,68.75z M50,38.75c-6.204,0-11.25,5.046-11.25,11.25S43.796,61.25,50,61.25V38.75z"/><path fill="#000000" d="M50,23.75c-2.071,0-3.75-1.677-3.75-3.75V8.75C46.25,6.677,47.929,5,50,5  s3.75,1.677,3.75,3.75V20C53.75,22.073,52.071,23.75,50,23.75z"/><path fill="#000000" d="M50,95c-2.071,0-3.75-1.677-3.75-3.75V80c0-2.073,1.679-3.75,3.75-3.75  s3.75,1.677,3.75,3.75v11.25C53.75,93.323,52.071,95,50,95z"/><path fill="#000000" d="M91.25,53.75H80c-2.071,0-3.75-1.677-3.75-3.75s1.679-3.75,3.75-3.75h11.25  c2.071,0,3.75,1.677,3.75,3.75S93.321,53.75,91.25,53.75z"/><path fill="#000000" d="M20,53.75H8.75C6.679,53.75,5,52.073,5,50s1.679-3.75,3.75-3.75H20  c2.071,0,3.75,1.677,3.75,3.75S22.071,53.75,20,53.75z"/><path fill="#000000" d="M71.213,32.535c-0.959,0-1.919-0.366-2.651-1.099c-1.465-1.465-1.465-3.838,0-5.303  l7.956-7.954c1.465-1.465,3.838-1.465,5.303,0s1.465,3.838,0,5.303l-7.956,7.954C73.132,32.169,72.172,32.535,71.213,32.535z"/><path fill="#000000" d="M20.831,82.919c-0.959,0-1.919-0.366-2.651-1.099c-1.465-1.465-1.465-3.838,0-5.303  l7.956-7.954c1.465-1.465,3.838-1.465,5.303,0s1.465,3.838,0,5.303l-7.956,7.954C22.75,82.552,21.791,82.919,20.831,82.919z"/><path fill="#000000" d="M79.169,82.919c-0.959,0-1.919-0.366-2.651-1.099l-7.956-7.954  c-1.465-1.465-1.465-3.838,0-5.303s3.838-1.465,5.303,0l7.956,7.954c1.465,1.465,1.465,3.838,0,5.303  C81.088,82.552,80.128,82.919,79.169,82.919z"/><path fill="#000000" d="M28.787,32.535c-0.959,0-1.919-0.366-2.651-1.099l-7.956-7.954  c-1.465-1.465-1.465-3.838,0-5.303s3.838-1.465,5.303,0l7.956,7.954c1.465,1.465,1.465,3.838,0,5.303  C30.706,32.169,29.747,32.535,28.787,32.535z"/></svg>
