<svg xmlns="http://www.w3.org/2000/svg" xmlns:xlink="http://www.w3.org/1999/xlink" version="1.1" x="0px" y="0px" viewBox="0 0 100 125" enable-background="new 0 0 100 100" xml:space="preserve"><g><path d="M62.066,27.684c-1.986-2.406-5.848-5.271-12.953-5.271c-4.801,0-9.012,1.906-11.76,5.266   c-0.266,0.326-0.521,0.66-0.76,1.012c-2.477,3.674-1.795,8.691-1.795,8.691c0.287,2.102,2.133,3.172,4.102,2.377l1.287-0.52   c0.271-0.109,0.531-0.242,0.781-0.391c1.549-0.93,2.582-2.545,2.385-3.887c0,0,0.008-0.01,0.465-0.688   c0.092-0.135,0.197-0.289,0.33-0.488c0.969-1.436,2.779-2.258,4.965-2.258c4.752,0,7.063,1.824,7.063,5.58   c0,2.096-1.262,4.303-4.666,8.141c-1.73,1.959-3.518,4.131-4.82,6.738c-1.328,2.654-2.006,5.504-2.072,8.719   c-0.014,0.594-0.014,0.594-0.014,0.594c-0.012,0.654,1.721,1.186,3.844,1.186h1.389c0.723,0,1.398-0.057,1.98-0.152   c1.127-0.184,1.893-0.52,1.898-0.9c0,0,0,0,0.01-0.535c0.084-3.861,1.49-6.084,4.609-9.605c3.363-3.803,6.953-8.342,6.953-14.184   C65.287,35.045,64.869,31.076,62.066,27.684z"/><path d="M53.693,72.662c-0.01-1.678-1.756-3.051-3.879-3.051h-1.389c-1.754,0-3.234,0.969-3.695,2.287   c-0.098,0.277-0.152,0.572-0.15,0.877c0,0,0,0,0.012,1.373c0.014,1.248,0.014,1.248,0.014,1.248   c0.006,1.207,1.748,2.191,3.869,2.191h1.391c0.697,0,1.352-0.111,1.918-0.303c1.156-0.391,1.936-1.119,1.934-1.953   c0,0,0,0-0.012-1.266C53.693,72.662,53.693,72.662,53.693,72.662z"/></g><g><path fill="none" d="M75.511,14.686H24.489c-5.406,0-9.805,4.398-9.805,9.805v51.021c0,5.406,4.398,9.803,9.805,9.803h51.021   c5.406,0,9.805-4.396,9.805-9.803V24.49C85.315,19.084,80.917,14.686,75.511,14.686z"/><path d="M75.511,10.283H24.489c-7.833,0-14.205,6.373-14.205,14.207v51.021c0,7.832,6.372,14.205,14.205,14.205h51.021   c7.833,0,14.205-6.373,14.205-14.205V24.49C89.716,16.656,83.344,10.283,75.511,10.283z M85.315,75.512   c0,5.406-4.398,9.803-9.805,9.803H24.489c-5.406,0-9.805-4.396-9.805-9.803V24.49c0-5.406,4.398-9.805,9.805-9.805h51.021   c5.406,0,9.805,4.398,9.805,9.805V75.512z"/></g></svg>
