<svg xmlns:dc="http://purl.org/dc/elements/1.1/" xmlns:cc="http://creativecommons.org/ns#" xmlns:rdf="http://www.w3.org/1999/02/22-rdf-syntax-ns#" xmlns:svg="http://www.w3.org/2000/svg" xmlns="http://www.w3.org/2000/svg" xmlns:sodipodi="http://sodipodi.sourceforge.net/DTD/sodipodi-0.dtd" xmlns:inkscape="http://www.inkscape.org/namespaces/inkscape" version="1.1" x="0px" y="0px" viewBox="0 0 100 125"><g transform="translate(0,-952.36218)"><path style="font-size:medium;font-style:normal;font-variant:normal;font-weight:normal;font-stretch:normal;text-indent:0;text-align:start;text-decoration:none;line-height:normal;letter-spacing:normal;word-spacing:normal;text-transform:none;direction:ltr;block-progression:tb;writing-mode:lr-tb;text-anchor:start;baseline-shift:baseline;opacity:1;color:#e7e7e7;fill:#e7e7e7;fill-opacity:1;stroke:none;stroke-width:3.99999976000000010;marker:none;visibility:visible;display:inline;overflow:visible;enable-background:accumulate;font-family:Sans;-inkscape-font-specification:Sans" d="M 17 15 C 10.940596 15 6 19.9406 6 26 L 6 74 C 6 80.0594 10.940596 85 17 85 L 83 85 C 89.059404 85 94 80.0594 94 74 L 94 26 C 94 19.9406 89.059404 15 83 15 L 17 15 z M 17 19 L 83 19 C 86.912593 19 90 22.08741 90 26 L 90 29 L 10 29 L 10 26 C 10 22.08741 13.087407 19 17 19 z M 19 21 C 17.343146 21 16 22.343146 16 24 C 16 25.656854 17.343146 27 19 27 C 20.656854 27 22 25.656854 22 24 C 22 22.343146 20.656854 21 19 21 z M 28 21 C 26.343146 21 25 22.343146 25 24 C 25 25.656854 26.343146 27 28 27 C 29.656854 27 31 25.656854 31 24 C 31 22.343146 29.656854 21 28 21 z M 37 21 C 35.343146 21 34 22.343146 34 24 C 34 25.656854 35.343146 27 37 27 C 38.656854 27 40 25.656854 40 24 C 40 22.343146 38.656854 21 37 21 z M 10 33 L 90 33 L 90 74 C 90 77.9126 86.912593 81 83 81 L 17 81 C 13.087407 81 10 77.9126 10 74 L 10 33 z M 49.71875 37 A 2.0002002 2.0002002 0 0 0 48.78125 37.40625 L 31.78125 50.40625 A 2.0002002 2.0002002 0 0 0 31 52 L 31 75 A 2.0002002 2.0002002 0 0 0 33 77 L 45 77 A 2.0002002 2.0002002 0 0 0 47 75 L 47 63 L 53 63 L 53 75 A 2.0002002 2.0002002 0 0 0 55 77 L 67 77 A 2.0002002 2.0002002 0 0 0 69 75 L 69 52 A 2.0002002 2.0002002 0 0 0 68.21875 50.40625 L 51.21875 37.40625 A 2.0002002 2.0002002 0 0 0 49.71875 37 z M 50 41.5 L 65 52.96875 L 65 73 L 57 73 L 57 61 A 2.0002002 2.0002002 0 0 0 55 59 L 45 59 A 2.0002002 2.0002002 0 0 0 43 61 L 43 73 L 35 73 L 35 52.96875 L 50 41.5 z " transform="translate(0,952.36218)"/></g></svg>
