<svg xmlns="http://www.w3.org/2000/svg" xmlns:xlink="http://www.w3.org/1999/xlink" xml:space="preserve" version="1.1" style="shape-rendering:geometricPrecision;text-rendering:geometricPrecision;image-rendering:optimizeQuality;" viewBox="0 0 847 1058.75" x="0px" y="0px" fill-rule="evenodd" clip-rule="evenodd"><defs><style type="text/css">
   
    .fil0 {fill:white}
   
  </style></defs><g><path class="fil0" d="M135 105l576 0c61,0 111,50 111,111l0 415c0,61 -50,111 -111,111l-576 0c-61,0 -111,-50 -111,-111l0 -415c0,-61 50,-111 111,-111zm0 49l576 0c34,0 62,28 62,62l0 415c0,34 -28,62 -62,62l-576 0c-34,0 -62,-28 -62,-62l0 -415c0,-34 28,-62 62,-62z"/><rect class="fil0" x="175" y="538" width="497.338" height="46.6351" rx="72" ry="23"/><rect class="fil0" x="175" y="400" width="497.338" height="46.6351" rx="72" ry="23"/><rect class="fil0" x="175" y="262" width="497.338" height="46.6351" rx="72" ry="23"/></g></svg>