<svg xmlns="http://www.w3.org/2000/svg" xmlns:xlink="http://www.w3.org/1999/xlink" version="1.1" x="0px" y="0px" viewBox="0 0 100 125" style="enable-background:new 0 0 100 100;" xml:space="preserve"><path d="M79.21,92.86H20.79c-8.63,0-15.66-7.02-15.66-15.66V22.79c0-8.63,7.02-15.66,15.66-15.66h58.42  c8.63,0,15.66,7.02,15.66,15.66v54.42C94.87,85.84,87.84,92.86,79.21,92.86z M20.79,12.14c-5.88,0-10.66,4.78-10.66,10.66v54.42  c0,5.88,4.78,10.66,10.66,10.66h58.42c5.88,0,10.66-4.78,10.66-10.66V22.79c0-5.88-4.78-10.66-10.66-10.66H20.79z"/><g><g><path d="M28.16,55.54c0.88,0,1.73,0.17,2.5,0.48V24.57c0-1.38-1.12-2.5-2.5-2.5s-2.5,1.12-2.5,2.5v31.44    C26.43,55.71,27.27,55.54,28.16,55.54z"/><path d="M28.16,69.14c-0.88,0-1.73-0.17-2.5-0.48v7.17c0,1.38,1.12,2.5,2.5,2.5s2.5-1.12,2.5-2.5v-7.17    C29.88,68.97,29.04,69.14,28.16,69.14z"/></g><path d="M28.16,71.65c-5.13,0-9.3-4.17-9.3-9.3c0-5.13,4.17-9.3,9.3-9.3c5.13,0,9.3,4.17,9.3,9.3   C37.46,67.47,33.29,71.65,28.16,71.65z M28.16,58.04c-2.37,0-4.3,1.93-4.3,4.3s1.93,4.3,4.3,4.3s4.3-1.93,4.3-4.3   S30.53,58.04,28.16,58.04z"/></g><g><g><path d="M49.68,46.53c-0.88,0-1.73-0.17-2.5-0.48v29.79c0,1.38,1.12,2.5,2.5,2.5s2.5-1.12,2.5-2.5V46.05    C51.41,46.36,50.57,46.53,49.68,46.53z"/><path d="M49.68,32.92c0.88,0,1.73,0.17,2.5,0.48v-8.83c0-1.38-1.12-2.5-2.5-2.5s-2.5,1.12-2.5,2.5v8.83    C47.96,33.1,48.8,32.92,49.68,32.92z"/></g><path d="M49.68,49.03c-5.13,0-9.3-4.17-9.3-9.3c0-5.13,4.17-9.3,9.3-9.3c5.13,0,9.3,4.17,9.3,9.3   C58.99,44.86,54.81,49.03,49.68,49.03z M49.68,35.42c-2.37,0-4.3,1.93-4.3,4.3s1.93,4.3,4.3,4.3s4.3-1.93,4.3-4.3   S52.06,35.42,49.68,35.42z"/></g><g><g><path d="M71.21,47.66c0.88,0,1.73,0.17,2.5,0.48V24.57c0-1.38-1.12-2.5-2.5-2.5s-2.5,1.12-2.5,2.5v23.56    C69.48,47.83,70.33,47.66,71.21,47.66z"/><path d="M71.21,61.26c-0.88,0-1.73-0.17-2.5-0.48v15.06c0,1.38,1.12,2.5,2.5,2.5s2.5-1.12,2.5-2.5V60.78    C72.93,61.09,72.09,61.26,71.21,61.26z"/></g><path d="M71.21,63.76c-5.13,0-9.3-4.17-9.3-9.3c0-5.13,4.17-9.3,9.3-9.3s9.3,4.17,9.3,9.3C80.51,59.59,76.34,63.76,71.21,63.76z    M71.21,50.16c-2.37,0-4.3,1.93-4.3,4.3s1.93,4.3,4.3,4.3s4.3-1.93,4.3-4.3S73.58,50.16,71.21,50.16z"/></g></svg>
