<svg xmlns="http://www.w3.org/2000/svg" viewBox="0 0 32 40" x="0px" y="0px"><g data-name="Group"><g data-name="Group"><g data-name="Group"><path d="M13,22a1,1,0,0,1-.71-1.71l10-10a1,1,0,0,1,1.42,0,1,1,0,0,1,0,1.41l-10,10A1,1,0,0,1,13,22Z"/></g><g data-name="Group"><path d="M13,22a1,1,0,0,1-.7-.3l-4-4a1,1,0,0,1,0-1.41,1,1,0,0,1,1.42,0l4,4A1,1,0,0,1,13,22Z"/></g></g><g data-name="Group"><path d="M16,31A15,15,0,1,1,31,16,15,15,0,0,1,16,31ZM16,3A13,13,0,1,0,29,16,13,13,0,0,0,16,3Z"/></g></g></g></svg>
