<svg xmlns:dc="http://purl.org/dc/elements/1.1/" xmlns:cc="http://creativecommons.org/ns#" xmlns:rdf="http://www.w3.org/1999/02/22-rdf-syntax-ns#" xmlns:svg="http://www.w3.org/2000/svg" xmlns="http://www.w3.org/2000/svg" xmlns:sodipodi="http://sodipodi.sourceforge.net/DTD/sodipodi-0.dtd" xmlns:inkscape="http://www.inkscape.org/namespaces/inkscape" viewBox="0 0 12.7 15.875" version="1.1" x="0px" y="0px"><g transform="translate(0,-284.29999)"><path d="m 6.3492247,285.35806 c -2.9193698,0 -5.2911497,2.37333 -5.2911497,5.2927 0,2.91938 2.3717799,5.29115 5.2911497,5.29115 2.9193699,0 5.2927003,-2.37177 5.2927003,-5.29115 0,-2.91937 -2.3733304,-5.2927 -5.2927003,-5.2927 z m 0,0.52917 c 2.6333899,0 4.7635303,2.13014 4.7635303,4.76353 0,2.63339 -2.1301404,4.76199 -4.7635303,4.76199 -2.6333897,0 -4.7619897,-2.1286 -4.7619897,-4.76199 0,-2.63339 2.1286,-4.76353 4.7619897,-4.76353 z m 0.00101,2.1177 c -0.7274499,0 -1.3223999,0.59495 -1.3223999,1.3224 0,0.72745 0.59495,1.32188 1.3223999,1.32188 0.7274398,0 1.3223899,-0.59443 1.3223899,-1.32188 0,-0.72745 -0.5949501,-1.3224 -1.3223899,-1.3224 z m 0,0.52917 c 0.4415499,0 0.7932298,0.35168 0.7932298,0.79323 0,0.44156 -0.3516799,0.79479 -0.7932298,0.79479 -0.44156,0 -0.7952999,-0.35323 -0.7952999,-0.79479 0,-0.0552 0.006,-0.10936 0.016499,-0.16123 0.0737,-0.36307 0.3924099,-0.632 0.7787701,-0.632 z m 0,2.38073 c -1.1680701,0 -2.1166699,0.94861 -2.1166699,2.11667 a 0.26460979,0.26460979 0 0 0 0.26406,0.26459 H 8.20231 a 0.26460979,0.26460979 0 0 0 0.26406,-0.26459 c 0,-1.16806 -0.9481,-2.11667 -2.1161399,-2.11667 z m 0,0.52918 c 0.78989,0 1.4061998,0.57267 1.53479,1.3229 h -3.06959 c 0.1285801,-0.75023 0.7448899,-1.3229 1.5348,-1.3229 z" style="color:#000000;font-style:normal;font-variant:normal;font-weight:normal;font-stretch:normal;font-size:medium;line-height:normal;font-family:sans-serif;font-variant-ligatures:normal;font-variant-position:normal;font-variant-caps:normal;font-variant-numeric:normal;font-variant-alternates:normal;font-feature-settings:normal;text-indent:0;text-align:start;text-decoration:none;text-decoration-line:none;text-decoration-style:solid;text-decoration-color:#000000;letter-spacing:normal;word-spacing:normal;text-transform:none;writing-mode:lr-tb;direction:ltr;text-orientation:mixed;dominant-baseline:auto;baseline-shift:baseline;text-anchor:start;white-space:normal;shape-padding:0;clip-rule:nonzero;display:inline;overflow:visible;visibility:visible;opacity:1;isolation:auto;mix-blend-mode:normal;color-interpolation:sRGB;color-interpolation-filters:linearRGB;solid-color:#000000;solid-opacity:1;vector-effect:none;fill:white;fill-opacity:1;fill-rule:nonzero;stroke:none;stroke-width:0.52916664;stroke-linecap:butt;stroke-linejoin:round;stroke-miterlimit:4;stroke-dasharray:none;stroke-dashoffset:0;stroke-opacity:1;color-rendering:auto;image-rendering:auto;shape-rendering:auto;text-rendering:auto;enable-background:accumulate"/></g></svg>
