<svg xmlns="http://www.w3.org/2000/svg" xmlns:xlink="http://www.w3.org/1999/xlink" version="1.1" x="0px" y="0px" viewBox="0 0 100 125" enable-background="new 0 0 100 100" xml:space="preserve"><path d="M93.084,15.445C81.134,3.239,69.435,4.636,63.719,10.353L43.983,30.09L27.641,13.748c-1.242-1.245-3.381-0.363-3.381,1.4  l0.02,10.501H13.759c-1.763,0-2.646,2.137-1.4,3.381L28.7,45.372L8.963,65.109c-5.502,5.502-0.982,15.688,4.854,21.523  c7.269,7.27,16.925,9.451,21.523,4.854c0,0,54.72-54.719,54.723-54.722l0,0l0,0l0.034-0.034c0.004-0.004,0.005-0.009,0.009-0.013  c4.098-4.161,2.298-10.553-1.737-14.901l4.86-4.86C93.63,16.554,93.663,15.849,93.084,15.445z M91.08,16.276L67.952,39.404  c-4.344-6.148-12.344-11.773-19.491-10.965l16.672-16.672C70.147,6.752,80.347,5.705,91.08,16.276z M68.239,55.76  c-2.232,2.232-7.882,7.882-10.111,10.111c1.243-10.943-12.643-24.793-23.549-23.549L44.69,32.211  c1.783-1.782,4.663-2.307,8.108-1.474C64.698,33.612,74.392,49.605,68.239,55.76z M24.28,27.65c1.092,0,1.98-0.889,1.98-1.98  l-0.033-10.507l16.342,16.341c-3.879,3.879-8.591,8.59-12.456,12.455L13.759,27.65H24.28z M30.825,46.075  c4.483-4.446,15.453-0.576,21.822,8.633L37.737,69.619c-6.063-5.974-14.108-10.359-22.259-8.197L30.825,46.075z M15.231,85.218  c-5.866-5.865-8.957-14.593-4.854-18.695c3.638-3.639,9.583-4.882,16.089-2.276l-9.182,9.182c-0.877,0.875,0.331,2.258,1.317,1.5  c2.375-1.828,8.821-1.775,13.12,2.474c2.483,2.452,3.971,5.534,3.979,8.243C35.722,92.994,25.194,95.179,15.231,85.218z   M21.666,71.877l6.746-6.746c2.629,1.346,5.536,3.428,8.611,6.595c0.002,0.002,0.005,0.003,0.007,0.005  c0.002,0.002,0.002,0.004,0.004,0.005c0.416,0.416,1.067,0.358,1.414,0l15.3-15.3c2.361,4.078,3.834,9.963,0.621,13.193  L37.678,86.32C38.159,79.834,31.266,70.959,21.666,71.877z M88.649,35.35L71.972,52.026c0.368-3.26-0.655-7.151-2.902-10.912  l17.885-17.885C90.217,26.77,91.954,32.044,88.649,35.35z"/></svg>
