<svg xmlns="http://www.w3.org/2000/svg" data-name="Layer 1" viewBox="0 0 100 125" x="0px" y="0px"><title>Artboard 27</title><path d="M60.4,16.38a.78.78,0,0,1-.26,0,1,1,0,0,1-.71-1.22,2.2,2.2,0,0,0-.18-2,3.57,3.57,0,0,0-2.57-.89,1,1,0,0,1-1-1,1,1,0,0,1,1-1c.28,0,2.84,0,4.19,1.64a4,4,0,0,1,.55,3.72A1,1,0,0,1,60.4,16.38ZM19.81,28.23a1,1,0,1,0-.17-2A2.05,2.05,0,0,1,18,25.86a2.12,2.12,0,0,1-.25-1.61h0a1,1,0,0,0-1.94-.46,4.06,4.06,0,0,0,.68,3.37,3.49,3.49,0,0,0,2.78,1.1ZM38.55,33a6.75,6.75,0,0,0,3.25-1.34,6.11,6.11,0,0,0,4.5.71,9.47,9.47,0,0,0,3.75-1.66,9.34,9.34,0,0,0,5,.83,9.1,9.1,0,0,0,5.68-2.91,1,1,0,0,0-1.61-1.19,7.22,7.22,0,0,1-4.4,2.14,8.07,8.07,0,0,1-4.33-.93,1,1,0,0,0-1.22.21,6.65,6.65,0,0,1-3.28,1.56,4,4,0,0,1-3.52-.81,1,1,0,0,0-1.56.24A3.86,3.86,0,0,1,38.22,31c-1.58.26-2-.75-2.07-1.06a1,1,0,0,0-1.83-.26,1.42,1.42,0,0,1-1.22.69c-.27,0-.44-.82-.43-1.35a1,1,0,0,0-1-1,1,1,0,0,0-1,1c0,1.19.4,3.25,2.26,3.4a3.14,3.14,0,0,0,2-.54A3.49,3.49,0,0,0,37.7,33,4.34,4.34,0,0,0,38.55,33Zm7.68,1.53v-3a1,1,0,1,0-2,0v3a1,1,0,0,0,2,0Zm18.34-4a9.05,9.05,0,0,0,4.61-3.61,1,1,0,1,0-1.71-1,7.09,7.09,0,0,1-3.6,2.78,6.11,6.11,0,0,1-4.82-.33A1,1,0,0,0,58,30a8.28,8.28,0,0,0,3.84.95A7.54,7.54,0,0,0,64.57,30.5ZM71,26.58a5.67,5.67,0,0,0,3.4-3.67,1,1,0,0,0-2-.44,3.68,3.68,0,0,1-2.25,2.29,8.38,8.38,0,0,1-4.1.25,1,1,0,0,0-1.17.79A1,1,0,0,0,65.71,27a12.82,12.82,0,0,0,2.13.18A7.85,7.85,0,0,0,71,26.58Zm10.07-7.69c.51-3.16-.5-4.89-1.44-5.78a4.49,4.49,0,0,0-3.72-1.23,1,1,0,1,0,.42,1.95,2.56,2.56,0,0,1,1.92.73c.85.8,1.14,2.19.85,4-.75,4.6-6,4.34-6.18,4.32h0a1,1,0,0,0-.13,2l.52,0C75.9,24.9,80.28,23.68,81.06,18.89Zm-4-4.55a4,4,0,0,0-3.11-4,4.66,4.66,0,0,0-3.16.37C70.09,9.41,68.5,7.73,65,7.4s-5.18.5-6.08,1.25a1,1,0,0,0-.13,1.4,1,1,0,0,0,1.41.13c.49-.41,1.75-1.07,4.61-.8,4,.39,4.55,2.95,4.57,3a1,1,0,0,0,1.79.42,2.36,2.36,0,0,1,2.38-.6,2.06,2.06,0,0,1,1.52,2.08,1,1,0,0,0,1,1h0A1,1,0,0,0,77.07,14.34ZM60,10.31A1,1,0,0,0,60.47,9c-.07-.14-1.73-3.46-5.26-3.46s-4.54,1.75-4.66,2A1,1,0,0,0,50.9,8.8a1,1,0,0,0,1.37-.31s.68-1,2.94-1a4.24,4.24,0,0,1,3.46,2.33h0a1,1,0,0,0,1.34.46ZM46.73,8.41a2,2,0,0,1,2-1.06c1.56,0,2,.69,2.05.76a1,1,0,0,0,1.8-.87c-.09-.19-1-1.89-3.85-1.89a3.92,3.92,0,0,0-3.88,2.41A1,1,0,0,0,45.46,9a1,1,0,0,0,.33.06A1,1,0,0,0,46.73,8.41Zm-.31.18a1,1,0,0,0,.48-1.33A4.34,4.34,0,0,0,43,5C40.3,5,39.41,6.3,39.32,6.45a1,1,0,0,0,.31,1.4A1,1,0,0,0,41,7.54S41.45,7,43,7A2.29,2.29,0,0,1,45.1,8.13a1,1,0,0,0,.9.56A.9.9,0,0,0,46.42,8.59Zm-5,.69A1,1,0,0,0,42.1,8a4.34,4.34,0,0,0-4.36-2.84,4.57,4.57,0,0,0-4.11,2A1,1,0,0,0,34,8.53a1,1,0,0,0,1.38-.31,2.59,2.59,0,0,1,2.41-1A2.4,2.4,0,0,1,40.2,8.63a1,1,0,0,0,.95.69A1,1,0,0,0,41.44,9.28Zm-6,.55a1,1,0,0,0,.62-1.27,5.09,5.09,0,0,0-4.62-3.37,3.64,3.64,0,0,0-2.73,1,3.56,3.56,0,0,0-.94,2.41,1,1,0,0,0,1,1h0a1,1,0,0,0,1-1A1.72,1.72,0,0,1,30,7.82c.09-.16.38-.64,1.46-.64a3.08,3.08,0,0,1,2.73,2,1,1,0,0,0,.94.67A1,1,0,0,0,35.43,9.83ZM25.05,11.22c.16-.6.75-1.93,1.54-2.18A2.62,2.62,0,0,1,28.35,9a1,1,0,1,0,.93-1.77A4.46,4.46,0,0,0,26,7.14c-2,.65-2.78,3.27-2.86,3.56a1,1,0,0,0,.7,1.22.82.82,0,0,0,.26,0A1,1,0,0,0,25.05,11.22ZM18,16.84a1,1,0,0,0,.5-1.31,2.7,2.7,0,0,1,1.2-3.43c2.31-1.48,5.17,0,5.23,0a1,1,0,0,0,1.35-.4,1,1,0,0,0-.4-1.35c-.16-.09-3.93-2.1-7.26,0a4.68,4.68,0,0,0-1.94,5.93,1,1,0,0,0,.91.58A1,1,0,0,0,18,16.84Zm-2.55,5.3a1,1,0,0,0-.52-1.31c-.55-.24-1.16-.71-1-2.19A2.81,2.81,0,0,1,17.2,16a1,1,0,0,0,.24-2A4.8,4.8,0,0,0,12,18.37a3.71,3.71,0,0,0,2.15,4.29.92.92,0,0,0,.4.08A1,1,0,0,0,15.43,22.14Zm5.8-3.6a1,1,0,0,0,.71-1.22.65.65,0,0,1,.49-.84,1,1,0,0,0-.63-1.89A2.65,2.65,0,0,0,20,17.82a1,1,0,0,0,1,.75Zm-3.82,8.84a1,1,0,0,0-.53-1.92,2.07,2.07,0,0,1-2.21-1.13A1.91,1.91,0,0,1,14.55,22a1,1,0,0,0-1.45-1.37A3.88,3.88,0,0,0,13,25.38a4.18,4.18,0,0,0,3.58,2.11A3.34,3.34,0,0,0,17.41,27.38Zm10.34,4.91a13.37,13.37,0,0,0,4.59-.9,1,1,0,0,0-.79-1.83,11.46,11.46,0,0,1-3.86.74A3.22,3.22,0,0,1,25,28.64a1,1,0,0,0-1.42-.39,6.14,6.14,0,0,1-3.69.77c-1.51-.2-1.54-2.3-1.55-2.4a1,1,0,0,0-1-1h0a1,1,0,0,0-1,1c0,1.36.68,4,3.28,4.38a8,8,0,0,0,4.16-.63,5,5,0,0,0,3.85,1.93ZM65.68,43c0-2.72-4-4.38-12-5a1,1,0,0,0-.14,2c8,.57,10.1,2.19,10.1,3s-3,3.18-16.55,3.18c-16.3,0-16.49-2.74-16.49-2.86,0-.69,1.86-2.62,10.36-3.28a1,1,0,0,0-.15-2c-8,.62-12.2,2.44-12.2,5.27,0,2.09,1.91,4.86,18.48,4.86C55.6,48.18,65.68,47.28,65.68,43ZM40.33,64.46c.29-.14,2.78-1.57,1.75-6.77-.58-2.91-.21-3.85.14-4.76a5.5,5.5,0,0,0,.43-1.65,9.09,9.09,0,0,0-.43-2.79c-.37-1.47-.78-3.13-.24-4.13a6,6,0,0,0,.1-5.19A4.17,4.17,0,0,1,42,35c.83-1.36.66-4.23.62-4.79a1,1,0,0,0-1.06-.92,1,1,0,0,0-.93,1.06A9.12,9.12,0,0,1,40.33,34a6.24,6.24,0,0,0,0,6.09,4,4,0,0,1-.06,3.35c-.92,1.69-.38,3.83.05,5.56a8.39,8.39,0,0,1,.38,2.15,3.7,3.7,0,0,1-.3,1.09c-.41,1.06-.93,2.39-.24,5.87.73,3.67-.7,4.6-.69,4.6h0a1,1,0,0,0,.45,1.89A.93.93,0,0,0,40.33,64.46Zm19.56-1.88A1,1,0,0,0,59,60.79c-.06,0-6.09,3-12.08,3A23.76,23.76,0,0,1,36.14,61a1,1,0,0,0-1,1.72,25.29,25.29,0,0,0,11.8,3.08A33.13,33.13,0,0,0,59.89,62.58Zm-14,2.51a12.49,12.49,0,0,0,.6-5,1,1,0,0,0-2,.13,10.63,10.63,0,0,1-.42,4,1,1,0,0,0,.49,1.32.88.88,0,0,0,.42.09A1,1,0,0,0,45.86,65.09Zm-.63-10.54a1,1,0,0,0,1-1,37.8,37.8,0,0,0-.28-4.68A7.28,7.28,0,0,1,46.11,45a9.73,9.73,0,0,0,.68-3.67,1,1,0,0,0-1-1h0a1,1,0,0,0-1,1,7.72,7.72,0,0,1-.44,2.74c-.88,1.66-.51,4.34-.37,5.12a37.36,37.36,0,0,1,.25,4.36,1,1,0,0,0,1,1Zm4.64,4c1.26-1.31.73-3.71.66-4a.92.92,0,0,0-.09-.23c-.29-.56-.78-2-.34-2.67a6.67,6.67,0,0,0,.61-4.47,1,1,0,1,0-2,.39,4.81,4.81,0,0,1-.32,3c-1.1,1.66-.12,4,.17,4.57.12.58.18,1.65-.18,2a1,1,0,0,0,.72,1.68A1,1,0,0,0,49.87,58.59Zm4.32,5.64c.59-1.65.15-6.16-.16-8.31a8.08,8.08,0,0,1,.15-3.14,3.21,3.21,0,0,0,0-2.1c-.07-.16,0-.39.17-.88a6.14,6.14,0,0,0,.4-1.72c.07-1.45-.35-6-.49-7.23a3.8,3.8,0,0,1,.35-1.43,7.6,7.6,0,0,0,.51-4.21,12.4,12.4,0,0,1,0-4.42,1,1,0,0,0-.76-1.19,1,1,0,0,0-1.19.76,14.12,14.12,0,0,0,0,5.23,5.71,5.71,0,0,1-.44,3.16,5.13,5.13,0,0,0-.45,2.33c.17,1.48.54,5.73.48,6.9a3.89,3.89,0,0,1-.29,1.15,3,3,0,0,0-.11,2.37,2.77,2.77,0,0,1-.11.87,10,10,0,0,0-.17,3.84c.45,3.1.57,6.47.25,7.35a1,1,0,0,0,.61,1.27,1,1,0,0,0,.33.06A1,1,0,0,0,54.19,64.23Zm9.54,24.33a1.07,1.07,0,0,0,0-.25V61.86c0-3.38-4.16-6.29-10.61-7.4a1,1,0,0,0-.35,2c5.24.9,8.9,3.11,8.9,5.36V88.13c-.29.66-2.53,4.61-14.17,4.61s-13.88-4-14.14-4.6V61.86c0-2,2.75-3.9,7-5a1,1,0,0,0-.5-2c-5.38,1.35-8.59,4-8.59,7V88.31a1.07,1.07,0,0,0,0,.25c.16.64,1.95,6.24,16.18,6.24C62,94.8,63.67,88.81,63.73,88.56Zm-1-.25h0Zm10.07-15c1.71-6.52-2.46-10.83-5-11.58s-5.47.82-5.6.89a1,1,0,0,0,1,1.81,6.25,6.25,0,0,1,4-.73c1.62.49,5,3.8,3.57,9.08-1.3,4.92-4.39,7.75-7.92,7.2a1,1,0,0,0-.32,2,7.78,7.78,0,0,0,1.17.09C67.82,82.14,71.38,78.75,72.8,73.34ZM63.59,78.1a7.15,7.15,0,0,0,3-1.63c2.52-2.14,3-6.77,1.51-8.8-1.22-1.67-3.72-1.38-5-.94a1,1,0,0,0-.6,1.21,1,1,0,0,0,1.22.6c.45-.15,2.25-.56,2.84.25.77,1.06.7,4.61-1.22,6.24a5.41,5.41,0,0,1-2.08,1.19,1,1,0,0,0-.8,1.09,1,1,0,0,0,.95.81Zm-.86,10.21a10.66,10.66,0,0,1-.89,1.44s-4,2.52-4.12,2.56-6.2,1.46-6.2,1.46l-4.28,1c12.22.86,22.9-1.21,23.5-5.36s-8-4.17-8-4.17Z"/></svg>
