<svg xmlns="http://www.w3.org/2000/svg" xmlns:xlink="http://www.w3.org/1999/xlink" version="1.1" x="0px" y="0px" viewBox="0 0 100 125" enable-background="new 0 0 100 100" xml:space="preserve"><path fill="#000000" d="M96.8,30.5c-0.4-2.9-2-5.3-4.5-6.6c-1.8-0.9-4.2-2.5-8.5-2.5c-7.1,0-20.9,7.1-25.4,10.3  c-1.5,1.1-5.4,4.4-9.1,4.4c-1.7,0-9.1-1.6-10.9-1.6c-0.5,0-0.9,0-1.4,0.1l-0.6-2c1.8-1.7,3.3-4.9,4.2-7.3c0.2-0.6,0.3-1.9,0-2.5  l-3.1-8c-0.5-1.2-1.8-1.8-2.9-1.3c-1.2,0.5-1.8,1.8-1.3,2.9l2.3,5.9c-10.7,4.5-18.3,11.4-22.1,15.5L7.6,16.4  c-0.3-1.2-1.6-1.9-2.8-1.6c-1.2,0.3-1.9,1.6-1.6,2.8l7.1,25.6c0.2,0.8,0.9,1.6,1.8,1.6c0.3,0,0.9-0.1,1.3-0.3l1.9,7.4  c-0.4,0.3-0.8,0.6-1,1.1c-0.2,0.4-4,10.1-0.1,18.9c0,0,1.6,9.6,1.9,10.1c1,2.1,3.3,4.6,8.9,4.6c8.5,0,21-5.8,24.3-9.4  c0.5-0.4,0.8-1,0.8-1.7l-0.4-2.9c3.5-0.6,12.3-3.1,27.9-12.2C88.4,54,97.6,36.8,96.8,30.5z M30.8,29.8l2.1,6.6  c-0.8,0.7-1.5,1.5-2.1,2.6c-3.4,5.9-8.1,9.3-11.4,11.1l-2.4-9.3C19.8,37.8,24.5,33.5,30.8,29.8z M25,82.1c-2.6,0-4.5-0.6-4.8-1.9  c-0.7-2.9,4-4.8,15.8-8l7.6,3.8C39.5,78.5,31.1,82.1,25,82.1z M91.9,33.9c-1.7,4.8-6.8,16.8-16.7,22.6  C57.6,66.8,49.3,68.1,47.9,68.2L40,64.6c4-1.7,13.3-9.4,15.7-15.1c4.5-10.8,16.9-16.8,23.6-20.2c3.9-2,8.2-2.4,10.8-1  C91.4,29,92.9,31,91.9,33.9z"/></svg>
