<svg xmlns="http://www.w3.org/2000/svg" xmlns:xlink="http://www.w3.org/1999/xlink" version="1.1" x="0px" y="0px" viewBox="0 0 100 125" enable-background="new 0 0 100 100" xml:space="preserve"><g><path d="M71.6,29.5c-5.3-7.2-6.8-7.2-7.3-7.2c-0.8,0-1.5,0.6-1.6,1.4c-0.7,6.1-3.2,7.9-6.7,10.3c-0.3,0.2-0.6,0.4-0.9,0.6   c-1.6-9.9-14-18.3-14.6-18.7c-0.4-0.3-0.9-0.3-1.4-0.1c-0.5,0.2-0.8,0.6-0.9,1.1c0,0.1-2.9,14.8-12.9,23.4   C17,47.5,12.5,55.4,12.1,63.7c-0.7,11.7,6.8,20,7.3,20.6c0.2,0.3,7.1,8.3,20.3,9.6c0-0.5,0.3-4.8,0.3-4.8c-0.2-2.2-0.5-6-0.7-7.8   c0-0.3-0.4-0.4-0.6-0.2c-2,2.4-4.1,4.6-7.6,3.4c-4.5-1.5-7.7-6.8-9.6-10.8c-0.8-1.6-1.9-3.7-1.7-5.5c0.1-2.1,1.7-3.9,3.7-4.3   c4.7-1,7.7,5.1,4,8.2c1.2,1.2,2.4,2.7,3.7,3.8c0.2,0.2,0.6,0.1,0.8-0.1c2.2-3.5,4.5-7.6,7.6-10.3c1.3-1.1,2.9-2.2,4.5-2.7   c0.3-0.1,0.6-0.1,0.9-0.2c-3.6-1.6-6-5.2-6-9.4c0-6.1,5.3-10.9,11.5-10.2c4.8,0.5,8.6,4.4,9,9.1c0.5,4.6-2.1,8.7-6,10.4   c0.3,0.1,0.5,0.1,0.8,0.2c1.6,0.5,3.2,1.6,4.5,2.7c3.1,2.7,5.4,6.8,7.6,10.3c0.2,0.3,0.5,0.3,0.8,0.1c1.3-1.1,2.6-2.6,3.7-3.8   c-3.7-3.1-0.7-9.3,4-8.2c2,0.4,3.6,2.2,3.7,4.3c0.1,1.8-1,3.9-1.7,5.5c-1.9,4-5.1,9.3-9.6,10.8c-3.4,1.1-5.5-1-7.4-3.2   c-0.2-0.3-0.7-0.1-0.7,0.2c-0.1,2.1-0.2,5.9-0.4,7.5c0,0,0.1,0.8,0.2,1.8c0,0.5,0.2,2.5,0.2,3c13.1-1.3,19.9-9.1,20.3-9.5   c0,0,0,0,0.1-0.1c10.4-11.5,6.6-27.2,1.6-38.5C77.9,38.4,73.8,32.4,71.6,29.5z"/><path d="M19.6,41.5C19.6,41.5,19.6,41.5,19.6,41.5L19.6,41.5c0.5,0,0.8-0.3,0.8-0.7c0-0.1,0-0.2,0-0.3c-0.1-0.6-0.8-4-0.2-8.5   c0.4-2.9-0.2-5.2-1.6-6.8c-2.2-2.5-5.7-2.7-7.1-2.7c-0.4,0-0.6,0-0.6,0c-0.3,0-0.5,0.2-0.6,0.5c-0.1,0.3,0,0.6,0.2,0.8   c1.2,1.3,0.9,3.1,0.5,5.4c-0.2,1.5-0.5,3.1-0.4,4.8C10.9,39.3,16.6,41.2,19.6,41.5z"/><path d="M89.8,19c-0.1-0.3-0.3-0.5-0.6-0.5c0,0-0.3,0-0.8,0c-1.4,0-4,0.3-5.9,2.3c-1.5,1.6-2.2,3.9-2.1,6.9   c0.2,4.7-0.8,6.9-0.8,6.9c-0.1,0.2-0.1,0.5,0,0.7c0.1,0.2,0.3,0.4,0.6,0.4c0,0,0.4,0,0.9,0c1.6,0,6.9-0.4,7.7-5.8   c0.2-1.6,0.1-3.3,0-4.7c-0.2-2.2-0.3-4.2,0.9-5.4C89.9,19.6,89.9,19.3,89.8,19z"/><path d="M27.8,26.4c0,0.3,0.2,0.5,0.4,0.6c0.1,0.1,0.2,0.1,0.3,0.1c0.1,0,0.3,0,0.4-0.1c2.4-1.6,6.3-5.9,3.6-10.6   c-0.8-1.4-1.9-2.6-2.9-3.7C28.1,11.1,26.8,9.6,27,8c0-0.3-0.1-0.5-0.3-0.7c-0.2-0.1-0.5-0.2-0.8,0c-0.1,0.1-3.2,2-3.8,5.5   c-0.4,2.3,0.5,4.7,2.5,7.1C27.6,23.4,27.8,26.4,27.8,26.4z"/><path d="M58.7,24.8c0.1,0,0.1,0,0.2,0l0,0c0.4,0,0.8-0.3,0.8-0.7c0-0.1,0-0.1,0-0.2c0-0.4,0.1-2.8,1.3-6.5c0.9-2.7,0.8-5.1-0.4-7   c-1.7-2.9-4.9-4.4-5.1-4.4c-0.2,0-0.4,0-0.6,0.1c-0.2,0.1-0.3,0.3-0.3,0.5c-0.2,2.5-0.9,4.3-1.6,5.5c-0.6,1-1.1,2.1-1.4,3.9   C50.8,22.3,58.4,24.7,58.7,24.8z"/></g></svg>
