<svg xmlns="http://www.w3.org/2000/svg" xmlns:xlink="http://www.w3.org/1999/xlink" xml:space="preserve" version="1.1" style="shape-rendering:geometricPrecision;text-rendering:geometricPrecision;image-rendering:optimizeQuality;" viewBox="0 0 17639 22048.75" x="0px" y="0px" fill-rule="evenodd" clip-rule="evenodd"><defs><style type="text/css">

    .fil0 {fill:black;fill-rule:nonzero}

  </style></defs><g><path class="fil0" d="M10605 9710c180,35 337,76 465,121 293,104 464,252 464,435 0,84 -39,162 -113,232 84,27 158,56 222,86 199,96 310,221 310,372 0,115 -73,218 -206,306 418,61 768,139 1027,228 27,9 52,19 77,28 991,310 1896,890 2643,1661 76,66 152,147 226,245 47,54 94,108 140,163 802,967 1376,2174 1611,3498 17,96 -47,187 -143,204 -96,17 -187,-47 -204,-143 -224,-1262 -771,-2412 -1535,-3334 -30,-36 -60,-72 -91,-107 -11,-9 -21,-20 -30,-32 -4,-5 -7,-10 -11,-15 -70,-79 -142,-157 -215,-233 -60,-49 -119,-83 -176,-103 -151,-52 -305,1 -454,127 -178,151 -347,398 -501,701 -453,895 -748,2230 -739,3037 1,97 -77,176 -174,177 -97,1 -176,-77 -177,-174 -10,-852 300,-2259 776,-3199 174,-343 371,-628 587,-811 120,-101 245,-173 374,-208 -434,-366 -910,-668 -1416,-894 -83,252 -542,454 -1241,583 -697,129 -1656,208 -2711,208 -1055,0 -2014,-80 -2711,-208 -690,-127 -1146,-326 -1237,-574 -228,98 -501,232 -798,400 -7,6 -15,12 -24,16 -429,245 -788,876 -1038,1634 -288,872 -427,1899 -364,2708 7,97 -66,182 -163,189 -97,7 -182,-66 -189,-163 -66,-853 79,-1932 381,-2845 103,-311 225,-604 364,-865 -315,237 -634,506 -936,810 -746,747 -1396,1697 -1675,2851 -23,94 -118,152 -212,130 -94,-23 -152,-118 -130,-212 296,-1226 981,-2230 1767,-3017 1268,-1270 2807,-1979 3382,-2148 77,-36 164,-69 260,-101 292,-95 686,-184 1147,-268 -61,-52 -111,-111 -146,-177 -225,1 -453,-18 -682,-63 -903,-174 -1090,-1071 -1250,-1838l-2 -8c-61,-294 -123,-556 -178,-792 -201,-854 -321,-1365 -195,-2454l9 -133c64,-946 158,-2325 494,-3156 280,-695 730,-1207 1278,-1560 607,-391 1334,-585 2083,-615 389,-15 787,6 1175,70 363,61 719,159 1052,302 26,11 47,21 65,28 1182,534 1767,1567 1967,2671 197,1087 18,2246 -329,3055 -12,28 -22,51 -31,71 -216,478 -435,706 -621,899 -224,233 -389,405 -400,1045l0 3c-17,487 -448,862 -899,1149zm2135 2144c-7,-2 -13,-5 -19,-7 -20,-7 -40,-14 -62,-22 -211,-73 -491,-138 -825,-192 -9,229 -313,411 -801,520 -423,95 -1003,154 -1640,154 -637,0 -1217,-59 -1640,-154 -495,-111 -801,-297 -801,-531l0 -1c-306,62 -569,126 -775,193 -82,27 -152,51 -210,74 -17,13 -36,23 -57,29 -12,4 -25,8 -38,12 -60,28 -92,52 -92,69 0,95 369,211 965,321 674,124 1610,201 2647,201 1038,0 1973,-77 2647,-201 596,-110 965,-226 965,-321 0,-32 -93,-81 -259,-143l-4 -1zm-1536 -379c-18,4 -35,8 -53,12 -423,95 -1003,154 -1640,154l0 -1 -33 0c-244,0 -850,1 -1385,-92 -131,-23 -257,-51 -375,-87 -156,41 -278,86 -358,135 -36,22 -55,21 -55,26 0,47 201,115 526,188 397,89 949,144 1563,144 614,0 1166,-55 1563,-144 325,-73 526,-141 526,-188 0,-2 -17,-11 -48,-34 -53,-40 -131,-80 -229,-113zm-4185 -793l1 -3 19 3c365,1 725,-59 1077,-160 548,-157 1077,-414 1573,-696 54,-31 124,-69 199,-109 497,-270 1247,-678 1264,-1167 15,-777 220,-991 498,-1280 166,-173 362,-377 553,-800 11,-25 21,-46 28,-64 324,-756 491,-1839 307,-2855 -181,-1000 -707,-1933 -1766,-2412 -23,-10 -42,-19 -58,-26 -307,-131 -636,-223 -972,-279 -365,-61 -739,-81 -1104,-66 -688,27 -1354,204 -1906,559 -489,315 -890,772 -1141,1394 -314,779 -406,2125 -469,3049l-9 139 -1 8c-120,1030 -5,1520 187,2337 54,230 114,485 180,800l2 8c138,661 299,1434 972,1564 190,37 379,54 566,56zm505 322c147,91 378,153 627,197 511,89 1092,88 1326,88l33 0 0 -1c614,0 1166,-55 1563,-144 325,-73 526,-141 526,-188 0,-2 -39,-21 -110,-55 -126,-61 -313,-115 -548,-160 -65,20 -135,38 -209,55 -423,95 -1003,154 -1640,154 -162,0 -341,-3 -524,-11 -173,-8 -340,-22 -482,-44 -185,48 -373,85 -562,109zm1417 -407c51,0 101,1 151,1 614,0 1166,-55 1563,-144 325,-73 526,-141 526,-188 0,-14 -84,-51 -228,-103 -202,-72 -491,-132 -833,-172l-62 34c-67,36 -130,70 -193,107 -296,168 -604,328 -922,465zm2486 -7372l21 2c245,21 456,209 602,503 134,269 218,632 223,1031 0,36 0,79 -1,128 -12,433 -114,823 -268,1104 -167,304 -400,486 -659,475l-21 -2c-245,-21 -456,-209 -602,-503 -134,-269 -218,-632 -223,-1031 0,-36 0,-79 1,-128 12,-433 114,-823 268,-1104 167,-304 400,-486 659,-475zm-2825 1671c232,0 421,210 421,468 0,259 -188,468 -421,468 -232,0 -421,-210 -421,-468 0,-259 188,-468 421,-468zm-3272 -627c235,-442 742,-252 1494,-187 135,20 221,-253 14,-303 -613,-142 -1420,-64 -1508,489zm2987 -28c1057,38 1405,257 1672,705 2,-771 -967,-1062 -1663,-1057 -282,-10 -287,343 -9,353zm-1969 322c232,0 421,210 421,468 0,259 -188,468 -421,468 -232,0 -421,-210 -421,-468 0,-259 188,-468 421,-468zm5672 457l-1 10c-171,-66 -363,-140 -558,-215 70,-435 139,-867 196,-1236 0,0 -94,-98 -215,-108 -2,0 -2,0 -12,0 -163,-7 -322,130 -447,357 -105,191 -183,440 -219,722l1 -4c217,85 459,178 695,270 -78,486 -157,975 -223,1384l-2 -1c31,14 62,22 95,25 2,0 2,0 12,0 163,7 322,-130 447,-357 120,-218 205,-513 232,-846z"/></g></svg>
