<svg xmlns="http://www.w3.org/2000/svg" xmlns:xlink="http://www.w3.org/1999/xlink" version="1.1" x="0px" y="0px" viewBox="0 0 100 125" style="enable-background:new 0 0 100 100;" xml:space="preserve"><g><path d="M72.1344604,41.4856567c-2.4887695-3.0410767-5.9238281-5.1853638-9.4944458-6.0145264   c-0.0023804-0.0028076-0.0028076-0.0064087-0.005249-0.0092163c-2.3564453-2.7016602-5.7617188-4.2509766-9.34375-4.2509766   c-3.1531372,0-6.1777954,1.2153931-8.4642334,3.3537598c-1.4658203-1.1427002-3.2871704-1.798584-5.2213135-1.798584   c-3.8106079,0-7.043396,2.5189819-8.1212769,5.979126c-7.001709,0.0278931-12.6902466,5.7304688-12.6902466,12.7386475   c0,7.0253906,5.7158203,12.7412109,12.7412109,12.7412109h6.7444458c0.8804321,1.2528687,2.109314,2.2521973,3.6832886,2.9208984   c1.5058594,0.6396484,3.25,0.9423828,5.0410156,0.9423828c2.7086182-0.0003662,5.5157471-0.6998291,7.7575684-1.9681396   c1.3567505,4.1047363,5.1147461,6.1864014,8.5471191,6.1864014c0.2177734,0,0.4345703-0.0087891,0.6494141-0.0253906   c3.2376099-0.2533569,6.9876099-2.5751343,7.2641602-8.2220459c1.3655396-0.2242432,2.6509399-0.6824951,3.8117676-1.3425293   c0.0203247-0.0095825,0.0418091-0.0133667,0.0617676-0.024292c0.1759644-0.0963135,0.3407593-0.2056885,0.5022583-0.3187256   c3.1821899-2.0582886,5.2975464-5.6311035,5.2975464-9.6949463C80.8955078,47.2737427,77.1573486,42.7368164,72.1344604,41.4856567   z M78.3651123,55.1065674c-0.0891724-0.9034424-0.2943115-1.7861328-0.6199951-2.588501   c-0.9133911-2.2487183-2.9487915-4.3100586-6.1547241-4.526001c-0.0206909-0.0023193-0.038147-0.013855-0.0591431-0.0150146   c-0.015625-0.0009766-1.6435547-0.1225586-3.7460938-2.9350586c-0.3623047-0.4858398-1.0527344-0.5864258-1.5390625-0.222168   c-0.4873047,0.3632812-0.5869141,1.0527344-0.2226562,1.5395508c0.6671143,0.8924561,1.312439,1.5731201,1.9135742,2.0974121   c-6.1226196,1.6487427-8.9781494,1.0238037-10.2924805,0.1950684c-0.8222656-0.5195312-1.3105469-1.2749023-1.4921875-2.3085938   c-0.1044922-0.5981445-0.6699219-0.9985352-1.2734375-0.8935547c-0.5976562,0.1049805-0.9980469,0.675293-0.8925781,1.2734375   c0.2861328,1.6333008,1.1455078,2.9433594,2.484375,3.7890625c1.0744019,0.6785889,2.479248,1.0447998,4.1672363,1.135437   c-0.6706543,0.9051514-1.1373291,2.0887451-1.1369629,3.6057739c0,0.6074219,0.4921875,1.0996094,1.0996094,1.0996094   s1.1005859-0.4926758,1.0996094-1.1005859c0-3.1035156,2.8261719-3.7958984,3.1582031-3.8662109   c0.0028687-0.0006104,0.0049438-0.0026855,0.0078125-0.0032959c1.2341309-0.1998291,2.5669556-0.4981079,3.9970703-0.8951416   c0.977356-0.2710571,1.8174438-0.354126,2.5510254-0.314209c0.006958,0.0004272,0.0127563,0.0007324,0.0192261,0.0010376   c2.5911865,0.1495361,3.7686157,1.9283447,4.272522,3.1710815c1.067749,2.6274414,0.4195557,5.9200439-1.3395386,7.2055054   c-1.451416,0.9282227-3.170105,1.4736938-5.0169067,1.4736938h-5.0625c-0.6074219,0-1.0996094,0.4926758-1.0996094,1.1000977   s0.4921875,1.1000977,1.0996094,1.1000977h4.7318726c-0.305542,4.0257568-2.8455811,5.6763916-5.2328491,5.862793   c-2.8530273,0.2323608-6.2379761-1.5685425-7.1223755-5.322998c0.097168-0.0862427,0.206543-0.1638794,0.2991333-0.2531738   c5.0283203-4.847168,8.1103516-5.7167969,11.7783203-3.3203125c0.5087891,0.3325195,1.1904297,0.1899414,1.5224609-0.3193359   c0.3320312-0.5087891,0.1894531-1.1904297-0.3193359-1.5224609c-1.4577026-0.9522705-2.8380737-1.4528198-4.1755371-1.6015625   c0.4332275-0.6813354,0.7493896-1.4970093,0.7790527-2.4614258c0.0185547-0.6074219-0.4589844-1.1147461-1.0664062-1.1333008   c-0.5595703-0.0175781-1.1142578,0.4584961-1.1328125,1.065918c-0.0587769,1.9127808-2.2963867,3.010376-2.4594116,3.0881348   c-2.1397705,0.8409424-4.2425537,2.4887695-6.4536743,4.6203613c-2.8955078,2.7924805-8.7871094,3.8173828-12.6123047,2.1933594   c-2.5878906-1.0996094-3.9003906-3.171875-3.9003906-6.1586914c0-2.6967773,0.7890625-4.5922852,2.4121094-5.7939453   c0.3850098-0.2849121,0.8121338-0.5081177,1.2556763-0.7029419c0.1522827-0.0534668,0.3692017-0.1363525,0.6278076-0.2493896   c4.1886597-1.4227295,9.9760742,0.2993774,10.0432739,0.319519c0.5761719,0.1782227,1.1943359-0.1494141,1.3730469-0.7299805   c0.1777344-0.5810547-0.1484375-1.1953125-0.7294922-1.3735352c-0.2282104-0.0702515-3.6981201-1.1087036-7.4694824-0.9688721   c0.0588989-0.12854,0.1117554-0.2608032,0.1550293-0.3983154c0.2519531-0.800293,0.3095703-2.0678711-0.8466797-3.5620117   c-0.3720703-0.4799805-1.0634766-0.5688477-1.5429688-0.1967773c-0.4804688,0.3720703-0.5693359,1.0629883-0.1972656,1.543457   c0.6943359,0.8964844,0.5400391,1.390625,0.4892578,1.5527344c-0.2540283,0.8128662-1.4024048,1.4664307-2.1930542,1.8110352   c-0.1682129,0.060791-0.3338623,0.1258545-0.4983521,0.1954956c-0.0211182,0.0071411-0.050415,0.0187378-0.0693359,0.0247192   c-0.0341187,0.0106812-0.0579224,0.0358887-0.09021,0.0494995c-0.5643921,0.2513428-1.1104736,0.5430908-1.6119385,0.9138794   c-2.1943359,1.6225586-3.3066406,4.1679688-3.3066406,7.5654297c0,1.1063232,0.1716919,2.1241455,0.4720459,3.0625h-5.6605225   c-5.8125,0-10.5419922-4.7285156-10.5419922-10.5410156c0-5.6713867,4.5059204-10.2979126,10.1239014-10.5198364   c-0.0036621,0.102417-0.0155029,0.2026978-0.0155029,0.3059692c0,0.3671875,0.0234375,0.7387695,0.0712891,1.1040039   c0.0722656,0.5541992,0.5449219,0.9580078,1.0898438,0.9580078c0.046875,0,0.0947266-0.0029297,0.1425781-0.0092773   c0.6025391-0.0786133,1.0273438-0.6303711,0.9492188-1.2329102c-0.0351562-0.2685547-0.0537109-0.5419922-0.0537109-0.8198242   c0-3.4760742,2.828125-6.3037109,6.3046875-6.3037109c2.359375,0,4.5039062,1.3012695,5.5947266,3.3969727   c0.2802734,0.5380859,0.9423828,0.7470703,1.4833984,0.4672852c0.5390625-0.2807617,0.7480469-0.9448242,0.4677734-1.4838867   c-0.2261963-0.4342041-0.4959717-0.833252-0.7851562-1.2144165c1.8765259-1.7366333,4.3485107-2.7211304,6.9248047-2.7211304   c2.0113525,0,3.9474487,0.6061401,5.5950928,1.6901855c-1.1377563,0.0367432-2.2666016,0.1852417-3.3626709,0.4577637   c-0.5888672,0.1464844-0.9482422,0.7431641-0.8017578,1.3325195s0.7392578,0.9492188,1.3330078,0.8022461   c1.0898438-0.2709961,2.2197266-0.4082031,3.3564453-0.4082031c3.295105,0,6.7067261,1.4627075,9.3909912,3.9002075   c-0.4744873,0.1219482-0.8323975,0.5334473-0.8323975,1.0460815c0,0.6074219,0.4921875,1.1000977,1.0996094,1.1000977h0.2802734   c5.1533203,0,9.3466797,4.1928711,9.3466797,9.3466797C78.6962891,53.5195923,78.5744019,54.3308716,78.3651123,55.1065674z"/><path d="M37.3505859,49.3295898c-2.2392578-0.7734375-1.7324219-3.3554688-1.6660156-3.6503906   c0.1357422-0.5898438-0.2314453-1.1787109-0.8212891-1.3168945c-0.5927734-0.137207-1.1826172,0.2285156-1.3222656,0.8198242   c-0.1442871,0.6160278-0.213623,1.4793091-0.0714111,2.3791504c-1.8253174,0.1988525-4.2873535,1.2247314-5.5084839,4.1928711   c-1.7915039-0.3063965-3.3882446,0.3320923-3.4689331,0.3664551c-0.5595703,0.2358398-0.8232422,0.8803711-0.5869141,1.4404297   c0.2353516,0.5600586,0.8808594,0.8212891,1.4404297,0.5869141c0.0166016-0.0063477,1.5908203-0.6347656,2.9238281-0.0375977   c0.7763672,0.3476562,1.359375,1.0795898,1.7333984,2.1748047c0.15625,0.456543,0.5830078,0.7441406,1.0410156,0.7441406   c0.1181641,0,0.2382812-0.019043,0.3554688-0.059082c0.5751953-0.1967773,0.8818359-0.8217773,0.6855469-1.3969727   c-0.4527588-1.3254395-1.1593628-2.3167114-2.0899658-2.9815063c1.1455688-2.7861938,3.6157837-2.894165,4.3278198-2.8641357   c0.5007324,0.7053833,1.2388916,1.3114624,2.309021,1.6810913c0.1191406,0.0410156,0.2402344,0.0605469,0.359375,0.0605469   c0.4560547,0,0.8828125-0.2856445,1.0400391-0.7407227C38.2294922,50.1542969,37.9248047,49.527832,37.3505859,49.3295898z"/><path d="M61.6337891,40.7905273c-0.1150513,0.0454712-0.8884277,0.375061-1.5220337,1.1071167   c-9.3822021-3.7058716-16.6283569,0.0900879-18.949707,1.5921631c-0.4033813-0.3665771-0.8180542-0.6374512-1.1483765-0.7852173   c-0.5517578-0.246582-1.1923828-0.0004883-1.4443359,0.5483398c-0.2509766,0.5488281-0.0087891,1.199707,0.5371094,1.4560547   c0.15625,0.0732422,1.5185547,0.7607422,1.3291016,2.3154297c-0.0732422,0.6030273,0.3554688,1.1513672,0.9589844,1.2246094   c0.0449219,0.0058594,0.0898438,0.0083008,0.1337891,0.0083008c0.5488281,0,1.0234375-0.4091797,1.0908203-0.9672852   c0.0910034-0.7475586-0.0171509-1.3986206-0.2232666-1.9725952c2.0134277-1.276001,8.5402832-4.664856,16.8859863-1.3820801   c-0.0302734,0.5748901,0.0709229,1.272644,0.458374,2.0807495c0.1894531,0.3945312,0.5830078,0.6245117,0.9931641,0.6245117   c0.1591797,0,0.3212891-0.034668,0.4746094-0.1083984c0.5478516-0.2626953,0.7792969-0.9199219,0.5166016-1.4672852   c-0.2578125-0.5371094-0.3193359-0.9926758-0.1816406-1.3540039c0.1835938-0.4833984,0.7158203-0.796875,0.9072266-0.8774414   c0.5585938-0.2260742,0.8320312-0.8608398,0.6103516-1.4228516C62.8369141,40.8447266,62.1943359,40.5693359,61.6337891,40.7905273   z"/><path d="M45.6653442,57.5271606c-0.8410645-0.4752808-1.7529907-0.6412354-2.4153442-0.6311646   c-0.6074219,0.0083008-1.09375,0.5073242-1.0849609,1.1147461c0.0078125,0.6074219,0.4736328,1.0908203,1.1142578,1.0854492   c0.2255859-0.0317383,2.2890625,0.0395508,2.4111328,2.4345703c0.0302734,0.5878906,0.515625,1.0444336,1.0976562,1.0444336   c0.0185547,0,0.0380859-0.0004883,0.0566406-0.0014648c0.6064453-0.0307617,1.0732422-0.5478516,1.0429688-1.1542969   c-0.0488892-0.9654541-0.2946777-1.7341309-0.6528931-2.3493042c2.6335449-2.4855957,5.5393677-0.6855469,6.0700073-0.3165894   c-0.1166382,0.5820312-0.1404419,1.2359619-0.0186768,1.9656982c0.0898438,0.5380859,0.5556641,0.9189453,1.0839844,0.9189453   c0.0595703,0,0.1210938-0.0048828,0.1816406-0.0151367c0.5996094-0.1000977,1.0039062-0.6669922,0.9042969-1.2661133   c-0.3369141-2.0170898,1.0615234-2.8041992,1.2304688-2.8911133c0.5400391-0.2666016,0.765625-0.9189453,0.5039062-1.4628906   c-0.2626953-0.546875-0.9189453-0.7807617-1.4677734-0.5146484c-0.4316406,0.2074585-0.9933472,0.6317749-1.4798584,1.2496338   C52.3521118,55.5673218,48.717041,54.5813599,45.6653442,57.5271606z"/><path d="M50,27.2856445c0.6074219,0,1.0996094-0.4926758,1.0996094-1.1000977v-4.3579102   c0-0.6074219-0.4921875-1.1000977-1.0996094-1.1000977s-1.0996094,0.4926758-1.0996094,1.1000977v4.3579102   C48.9003906,26.7929688,49.3925781,27.2856445,50,27.2856445z"/><path d="M50,72.7143555c-0.6074219,0-1.0996094,0.4926758-1.0996094,1.1000977v4.3579102   c0,0.6074219,0.4921875,1.1000977,1.0996094,1.1000977s1.0996094-0.4926758,1.0996094-1.1000977v-4.3579102   C51.0996094,73.2070312,50.6074219,72.7143555,50,72.7143555z"/><path d="M70.3789062,30.7211914c0.28125,0,0.5634766-0.1074219,0.7773438-0.3222656l3.7294922-3.7294922   c0.4296875-0.4296875,0.4296875-1.1259766,0-1.5556641c-0.4277344-0.4296875-1.1269531-0.4296875-1.5546875,0l-3.7294922,3.7294922   c-0.4296875,0.4296875-0.4296875,1.1259766,0,1.5556641C69.8154297,30.6137695,70.0976562,30.7211914,70.3789062,30.7211914z"/><path d="M28.84375,69.6010742l-3.7294922,3.7294922c-0.4296875,0.4296875-0.4296875,1.1259766,0,1.5556641   c0.2138672,0.2148438,0.4960938,0.3222656,0.7773438,0.3222656s0.5634766-0.1074219,0.7773438-0.3222656l3.7294922-3.7294922   c0.4296875-0.4296875,0.4296875-1.1259766,0-1.5556641C29.9707031,69.1713867,29.2714844,69.1713867,28.84375,69.6010742z"/><path d="M28.84375,30.3989258c0.2138672,0.2148438,0.4960938,0.3222656,0.7773438,0.3222656   s0.5634766-0.1074219,0.7773438-0.3222656c0.4296875-0.4296875,0.4296875-1.1259766,0-1.5556641l-3.7294922-3.7294922   c-0.4277344-0.4296875-1.1269531-0.4296875-1.5546875,0c-0.4296875,0.4296875-0.4296875,1.1259766,0,1.5556641L28.84375,30.3989258   z"/><path d="M73.3769531,71.8217773c-0.4277344-0.4296875-1.1269531-0.4296875-1.5546875,0   c-0.4296875,0.4296875-0.4296875,1.1259766,0,1.5556641l2.609375,2.609375   c0.2138672,0.2148438,0.4960938,0.3222656,0.7773438,0.3222656s0.5634766-0.1074219,0.7773438-0.3222656   c0.4296875-0.4296875,0.4296875-1.1259766,0-1.5556641L73.3769531,71.8217773z"/><path d="M91.3964844,48.8999023h-4.6269531c-0.6074219,0-1.0996094,0.4926758-1.0996094,1.1000977   s0.4921875,1.1000977,1.0996094,1.1000977h4.6269531c0.6074219,0,1.0996094-0.4926758,1.0996094-1.1000977   S92.0039062,48.8999023,91.3964844,48.8999023z"/><path d="M13.2304688,48.8999023H8.6035156c-0.6074219,0-1.0996094,0.4926758-1.0996094,1.1000977   s0.4921875,1.1000977,1.0996094,1.1000977h4.6269531c0.6074219,0,1.0996094-0.4926758,1.0996094-1.1000977   S13.8378906,48.8999023,13.2304688,48.8999023z"/></g></svg>
