<svg xmlns="http://www.w3.org/2000/svg" xmlns:xlink="http://www.w3.org/1999/xlink" version="1.1" x="0px" y="0px" viewBox="0 0 100 125" enable-background="new 0 0 100 100" xml:space="preserve"><path d="M80.7497559,77.5897064c-0.0826416-4.2074585-0.8290405-8.1616211-2.0859375-11.6538086V56.865097  c0-2.7568359-2.2431641-5-5-5h-1.519165c0.9689331-1.734314,1.7629395-3.5891724,2.3485718-5.541748  c0.2501831,0.0374146,0.500061,0.0769043,0.760437,0.0769043c2.8466797,0,5.1630859-2.315918,5.1630859-5.1630859  c0-2.729248-2.1350708-4.9473267-4.8187866-5.1282349c-0.8175049-11.2606201-8.2015991-20.6138916-18.1209106-23.800354  c-0.4701538-1.2578125-1.2633057-2.7394409-2.1710815-4.1743774c-0.1998291-0.4200444-0.4231567-0.7106328-0.5661011-0.8680425  c-1.5626221-2.3216553-3.2927856-4.3295288-4.1741943-4.6959839c-0.4970703-0.2070313-1.0063477-0.1313477-1.359375,0.2021484  c-0.6489258,0.6123047-0.371582,1.613281-0.0600586,2.5034177c0.6303711,1.8022461-0.6064453,2.8666997-2.8461914,4.5927739  c-0.8032227,0.6190796-1.6499023,1.2808228-2.3740234,2.038147c-10.6190796,2.7236938-18.6688843,12.4170532-19.5244751,24.2022705  c-2.684082,0.1811523-4.8187866,2.3991089-4.8187866,5.1282349c0,2.847168,2.3164063,5.1630859,5.1635742,5.1630859  c0.2602539,0,0.5100098-0.0394897,0.7600098-0.0768433c0.5856323,1.9525146,1.3795776,3.807373,2.3485107,5.541687h-1.5186768  c-2.7568359,0-5,2.2431641-5,5v9.0708008c-1.256897,3.4921875-2.0032959,7.4463501-2.0859375,11.6538086l-0.1748047,8.9150391  c-0.0097656,0.4863281,0.1728516,0.9472656,0.5141602,1.2949219c0.3413086,0.3486328,0.7978516,0.5400391,1.2851563,0.5400391  h6.817688c4.833252,5.6290283,11.9932251,9.2050781,19.9772339,9.2050781h4.6606445  c7.9837036,0,15.1437378-3.5760498,19.9771118-9.2050781h6.8173218c0.4873047,0,0.9433594-0.1914063,1.2851563-0.5390625  c0.3408203-0.3476563,0.5244141-0.8085938,0.5146484-1.2958984L80.7497559,77.5897064z M75.6813965,38.1888275  c0-0.0240479-0.0016479-0.0476685-0.001709-0.0716553c1.5413818,0.2104492,2.7370605,1.5217285,2.7370605,3.1199951  c0,1.7441406-1.4189453,3.1630859-3.1630859,3.1630859c-0.0881958,0-0.1711426-0.0189209-0.2575073-0.026062  C75.4394531,42.3861542,75.6813965,40.3173065,75.6813965,38.1888275z M24.7463379,44.4002533  c-1.7446289,0-3.1635742-1.4189453-3.1635742-3.1630859c0-1.5981445,1.1954956-2.9092407,2.7370605-3.1199341  c-0.000061,0.0239868-0.001709,0.0475464-0.001709,0.0715942c0,2.128479,0.2419434,4.1973877,0.6852417,6.1854248  C24.9171143,44.3813324,24.8343506,44.4002533,24.7463379,44.4002533z M55.2140503,12.0040741  c0.4265747,0.8931885,0.7004395,1.6793823,0.7149048,2.2262573c0.0693359,2.6494141-0.6318359,4.9306641-1.9243164,6.2573242  c-0.6258545,0.6425781-1.3946533,1.048645-2.2828979,1.2354736c-0.3625488-0.4512329-1.0006714-1.4159546-1.0003052-2.6422119  c0.0004883-1.2373047,0.6523438-2.4780273,1.9365234-3.6879883C53.8792725,14.2422333,54.7286377,13.1091766,55.2140503,12.0040741z   M46.7938843,20.9777069c-0.1252441-0.3508911-1.7306519-5.130188,2.9841919-7.3230591  c2.0522461-0.9547729,3.3609009-2.2443237,3.9119263-3.8283081c0.0004272,0.0158081,0.0054321,0.0265503,0.0055542,0.0426636  c0.0053711,0.8154297-0.4077148,2.1831055-2.4086914,4.0678711c-1.7016602,1.6030273-2.5644531,3.3334961-2.5654297,5.1430664  c-0.0004272,1.0615845,0.3062744,1.96698,0.6695557,2.6837158C48.4315796,21.6408539,47.5481567,21.3785248,46.7938843,20.9777069z   M44.1618652,15.4056244c0.2607422-1.5654297,1.765625-2.7250977,3.3588867-3.9526367  c1.859375-1.4326172,3.9296875-3.0283203,3.793457-5.4843755c0.041687,0.0515747,0.0858154,0.1088867,0.1282959,0.1622925  c0.0125122,0.0241699,0.0133057,0.0510254,0.0279541,0.0745239c0.0083008,0.0136719,0.8178711,1.3686523,0.3847656,2.8286138  c-0.3310547,1.1152344-1.3139648,2.0595703-2.9208984,2.8071289c-3.3681641,1.5664673-4.4173584,4.2591553-4.5019531,6.6016846  C44.0733032,17.5489349,43.9755859,16.523056,44.1618652,15.4056244z M26.3181152,38.1888275  c0-10.979248,6.7133179-20.3248291,16.0231934-23.7011719c-0.057251,0.1928101-0.1179199,0.3839111-0.1520996,0.5888672  c-0.3813477,2.2880859,0.1274414,4.3364258,1.472168,5.9238281c1.5327148,1.8095703,4.0581055,2.847168,6.9282227,2.847168  c1.9199219,0,3.5961914-0.6791992,4.8476563-1.9643555c1.5952148-1.6372681,2.4847412-4.2840576,2.4857178-7.3004761  c9.1724243,3.4561157,15.7584229,12.730896,15.7584229,23.6061401c0,13.8139648-10.6240234,25.0532227-23.6816406,25.0532227  C36.9416504,63.2420502,26.3181152,52.0027924,26.3181152,38.1888275z M52.3303223,95.5447845h-4.6606445  c-13.4174805,0-24.3334961-10.9160156-24.3334961-24.3330078V56.865097c0-1.6542969,1.3457031-3,3-3h2.7528076  c0.9859619,1.4552002,2.1039429,2.8032227,3.3375244,4.0249634c4.5977783,4.5536499,10.7792969,7.3519897,17.5732422,7.3519897  s12.9754639-2.7983398,17.5732422-7.3519897c1.2335815-1.2217407,2.3515625-2.5697632,3.3375244-4.0249634h2.7532959  c1.6542969,0,3,1.3457031,3,3v14.3466797C76.6638184,84.6287689,65.7478027,95.5447845,52.3303223,95.5447845z   M74.2956543,57.8904877V68.224472c0,13.3964844-10.8994141,24.2958984-24.2958984,24.2958984  S25.7043457,81.6209564,25.7043457,68.224472V57.8904877c0-0.5527344,0.4477539-1,1-1  c0.552124,0,0.9996948,0.4469604,0.999939,0.9995728c0,0.0001221,0.000061,0.0003052,0.000061,0.0004272V68.224472  c0,12.2939453,10.0014648,22.2958984,22.2954102,22.2958984S72.2956543,80.5184174,72.2956543,68.224472V57.8904877  c0-0.0001221,0.000061-0.0003052,0.000061-0.0004272c0.0002441-0.5526123,0.4473267-0.9995728,0.999939-0.9995728  C73.8483887,56.8904877,74.2956543,57.3377533,74.2956543,57.8904877z M35.2212524,37.988205  c0-1.4534912,1.1783447-2.6318359,2.6318359-2.6318359s2.6318359,1.1783447,2.6318359,2.6318359  c0,1.4535522-1.1783447,2.6318359-2.6318359,2.6318359S35.2212524,39.4417572,35.2212524,37.988205z M59.5150146,37.988205  c0-1.4534912,1.1782837-2.6318359,2.6317749-2.6318359c1.4535522,0,2.6318359,1.1783447,2.6318359,2.6318359  c0,1.4535522-1.1782837,2.6318359-2.6318359,2.6318359C60.6932983,40.6200409,59.5150146,39.4417572,59.5150146,37.988205z   M34.5754395,49.146347c-2.012207,0-3.5297852-0.9746094-3.5297852-2.2675781c0-1.2919922,1.5175781-2.2666016,3.5297852-2.2666016  s3.5297852,0.9746094,3.5297852,2.2666016C38.1052246,48.1717377,36.5876465,49.146347,34.5754395,49.146347z   M65.4245605,44.6121674c2.0117188,0,3.5292969,0.9746094,3.5292969,2.2666016c0,1.2929688-1.5175781,2.2675781-3.5292969,2.2675781  c-2.0126953,0-3.5302734-0.9746094-3.5302734-2.2675781C61.8942871,45.5867767,63.4118652,44.6121674,65.4245605,44.6121674z   M41.7028809,52.4647064c-0.1518555-0.53125,0.1552734-1.0849609,0.6865234-1.2373047  c0.5327148-0.1464844,1.0844727,0.15625,1.2363281,0.6865234c0.0357056,0.0820313,0.1201172,0.1807861,0.2619629,0.2756348  c0.4827881,0.3228149,1.6514282,0.5931396,3.932373,0c0.5436401-0.1413574,1.1431274-0.3261108,1.8198242-0.5773926  c0.2226563-0.0820313,0.4975586-0.0820313,0.7202148,0c0.6763916,0.2513428,1.2756958,0.4361572,1.8192139,0.5773926  c2.2220459,0.5773926,3.3873901,0.331543,3.8991089,0c0.1679688-0.1088257,0.2701416-0.225769,0.312439-0.3254395  c0.1513672-0.5322266,0.6977539-0.8164063,1.2280273-0.6611328c0.5307617,0.1513672,0.8300781,0.7304688,0.6782227,1.2617188  c-0.0473633,0.1660156-0.3413086,1.0224609-1.4648438,1.5917969c-0.6401367,0.3232422-1.4150391,0.4853516-2.3208008,0.4853516  c-1.2563477,0-2.7641602-0.3115234-4.5117188-0.9326172c-3.0073242,1.0693359-5.3041992,1.21875-6.8320313,0.4472656  C42.0441895,53.4871674,41.7502441,52.630722,41.7028809,52.4647064z M39.8220215,76.1316986  c0.4760742,0.3642578,1.0395508,0.5527344,1.6171875,0.5527344c0.2524414,0,0.5073242-0.0361328,0.7583008-0.109375  l4.5679321-1.3348389c0.538269,0.4890747,1.2194824,0.7735596,1.953064,0.7869873l2.3999023,0.0439453  c0.0185547,0,0.0375977,0,0.0566406,0c0.7128906,0,1.3827515-0.2584839,1.9240723-0.7153931l4.5148926,1.4995728  c0.2807617,0.0927734,0.5673828,0.1386719,0.8515625,0.1386719c0.543457,0,1.0771484-0.1679688,1.5380859-0.4941406  c0.7021484-0.4970703,1.1142578-1.2753906,1.1298828-2.1357422l0.0947266-5.2041016  c0.015625-0.8603516-0.3671875-1.6523438-1.0507813-2.1748047c-0.6826172-0.5234375-1.550293-0.6855469-2.3754883-0.4433594  l-4.5699463,1.3353271c-0.5192871-0.4711304-1.1960449-0.7731934-1.9505615-0.7874756l-2.4003906-0.0439453  c-0.7557983-0.0079956-1.4414673,0.2682495-1.9761963,0.7168579l-4.5194092-1.5010376  c-0.815918-0.2705078-1.6870117-0.1416016-2.3891602,0.3554688c-0.7026367,0.4970703-1.1147461,1.2763672-1.1303711,2.1357422  l-0.0947266,5.2041016C38.7556152,74.8172455,39.138916,75.6092377,39.8220215,76.1316986z M58.3620605,68.4617767  c0.0634766-0.0185547,0.1279297-0.0273438,0.1918945-0.0273438c0.1459961,0,0.2885742,0.0478516,0.4091797,0.1396484  c0.1723633,0.1318359,0.269043,0.3320313,0.2651367,0.5488281l-0.0947266,5.2041016  c-0.0039063,0.2177734-0.1079102,0.4150391-0.2851563,0.5400391c-0.1772461,0.1259766-0.3969727,0.1582031-0.6035156,0.0898438  l-4.1257324-1.3699951c0.0261841-0.1514282,0.0505981-0.3035278,0.0534668-0.460083l0.0541992-2.9824219  c0.0028687-0.1582031-0.017395-0.310791-0.0383911-0.4628906L58.3620605,68.4617767z M47.8273926,70.028183  c0.0097656-0.5458984,0.4570313-0.9824219,1-0.9824219c0.0058594,0,0.0117188,0,0.0180664,0l2.3994141,0.0439453  c0.5512695,0.0097656,0.9921875,0.4667969,0.9819336,1.0175781l-0.0541992,2.9824219  c-0.0048828,0.2675781-0.1132813,0.5166016-0.3056641,0.7021484c-0.1918945,0.1845703-0.4594727,0.2744141-0.7119141,0.2792969  l-2.4008789-0.0439453c-0.2666016-0.0048828-0.515625-0.1132813-0.7011719-0.3056641s-0.284668-0.4453125-0.2797852-0.7119141  L47.8273926,70.028183z M40.8659668,68.7899017c0.0039063-0.2177734,0.1079102-0.4140625,0.2856445-0.5400391  c0.1162109-0.0830078,0.2514648-0.125,0.3886719-0.125c0.0717773,0,0.144043,0.0117188,0.2148438,0.0351563l4.1270142,1.3707275  c-0.0263062,0.1508789-0.0518799,0.3023071-0.0547485,0.4603271l-0.0541992,2.9814453  c-0.0027466,0.1571045,0.0161133,0.3104858,0.0368652,0.4632568l-4.1726074,1.2193604  c-0.2084961,0.0615234-0.4277344,0.0205078-0.6005859-0.1123047c-0.1728516-0.1318359-0.2695313-0.3320313-0.265625-0.5488281  L40.8659668,68.7899017z"/></svg>
