<svg xmlns="http://www.w3.org/2000/svg" xmlns:xlink="http://www.w3.org/1999/xlink" version="1.1" x="0px" y="0px" viewBox="0 0 300.955 327.32500000000005" style="enable-background:new 0 0 300.955 261.86;" xml:space="preserve"><g><polygon points="146.099,123.996 149.149,123.996 161.978,114.996 138.641,114.996  "/><path d="M300.955,114.996h-65.241c0.354,1.256,0.583,2.568,0.629,3.935c0.06,1.737-0.161,3.439-0.626,5.065h65.238V114.996z"/><path d="M148.004,32.705c-0.229,0.946-0.482,1.86-0.725,2.789h84.676v51.004h-91.001V54.872c-1.91,4.834-3.935,9.331-6,13.462   v24.162h36.501v10.668h-10.334v6.667h8.22l3.541-2.484c2.637-1.847,5.729-2.879,8.949-2.987l29.956-1.02v-0.176h-10.332V92.496   h36.5v-63h-89.641C148.353,30.553,148.263,31.629,148.004,32.705z"/><path d="M292.767,16.331h-46v93.5h46V16.331z M269.767,86.83c-2.9,0-5.25-2.351-5.25-5.25s2.35-5.25,5.25-5.25   c2.898,0,5.25,2.351,5.25,5.25S272.666,86.83,269.767,86.83z M286.267,52.496h-33v-11h33V52.496z M286.267,35.83h-33v-11h33V35.83z   "/><path d="M84.254,62.728c-7.904-9.539-22.085-10.897-31.674-3.032c-9.587,7.863-10.953,21.974-3.048,31.514   c7.904,9.54,22.086,10.897,31.673,3.033C90.794,86.378,92.158,72.269,84.254,62.728z"/><path d="M232.346,119.066c-0.234-6.864-6.02-12.238-12.916-12.005l-37.463,1.274c-2.439,0.084-4.783,0.867-6.779,2.265   l-28.693,20.132l-31.522-38.043c7.381-9.377,21.772-30.526,29.142-60.912c1.029-4.274-1.615-8.57-5.908-9.597   c-4.295-1.026-8.616,1.606-9.647,5.879c-4.506,18.668-12.058,33.592-18.458,43.786c-3.2,5.096-6.105,9.005-8.176,11.605   c-1.034,1.297-1.862,2.268-2.412,2.897c-0.275,0.314-0.479,0.541-0.608,0.679c-0.062,0.069-0.108,0.119-0.132,0.143l-0.009,0.012   c-0.007,0.007-0.011,0.014-0.018,0.021l-27.831,22.828c-0.473,0.297-0.921,0.646-1.336,1.052l-0.003,0.001h-0.002   c-0.483,0.587-17.22,16.059-37.681,19.941c-6.978,1.364-14.323,1.496-21.891-0.443c-4.279-1.1-8.642,1.46-9.746,5.718   s1.471,8.597,5.75,9.696c10.189,2.62,20.065,2.396,28.944,0.652c0.014-0.002,0.027-0.006,0.04-0.008   c2.814-0.556,5.526-1.266,8.139-2.077c1.34-7.157,6.036-13.573,13.166-16.779l32.834-14.767   c11.566-5.201,25.209-0.021,30.411,11.545l19.003,42.255l12.768-5.741c6.705-3.016,14.614-0.013,17.631,6.693   c0.884,1.966,1.237,4.033,1.145,6.053l7.674-0.76l18.425,31.74c2.745,4.73,8.144,6.988,13.247,5.986   c1.314-0.259,2.606-0.732,3.83-1.435c5.977-3.438,8.025-11.044,4.571-16.989l-22.459-38.693c-2.449-4.223-7.185-6.638-12.061-6.156   l-20.214,2.002l23.447-16.451l33.736-1.148C227.18,131.687,232.582,125.93,232.346,119.066z"/><path d="M166.205,168.999c-2.341-5.205-8.457-7.526-13.662-5.186l-15.506,6.973l-20.234-44.993   c-4.53-10.074-16.369-14.568-26.443-10.037l-32.832,14.766c-10.074,4.53-14.568,16.369-10.037,26.443l20.508,45.601   c4.53,10.074,16.369,14.568,26.443,10.037l21.28-9.57l16.133,35.872l-17.025,7.657c-4.029,1.811-5.827,6.547-4.015,10.577   c1.813,4.03,6.548,5.827,10.577,4.015l49.858-22.422c4.029-1.813,5.827-6.548,4.015-10.577c-1.813-4.03-6.548-5.827-10.577-4.016   l-17.025,7.657l-16.133-35.872l29.49-13.263C166.224,180.321,168.545,174.203,166.205,168.999z"/><path d="M81.208,221.679c0.021-0.008,0.042-0.015,0.062-0.021c0.399-0.142,0.803-0.316,1.22-0.522   c0.494-0.242,0.698-0.84,0.453-1.334c-0.243-0.5-0.842-0.703-1.337-0.458c-0.359,0.178-0.691,0.319-1.002,0.43   c-2.31,0.787-3.692,0.139-4.744-0.701c-0.51-0.43-0.899-0.923-1.153-1.302c-0.251-0.381-0.345-0.612-0.353-0.609   c-0.228-0.505-0.817-0.729-1.318-0.502c-0.506,0.225-0.732,0.815-0.504,1.32c0.034,0.074,0.642,1.44,2.047,2.625   C75.95,221.791,78.291,222.71,81.208,221.679z"/><path d="M83.119,223.542c-0.723,0.389-1.398,0.694-2.033,0.919c-3.515,1.222-5.889,0.25-7.59-1.029   c-0.842-0.644-1.48-1.381-1.899-1.946c-0.421-0.57-0.601-0.933-0.608-0.931c-0.252-0.492-0.854-0.682-1.343-0.431   c-0.492,0.252-0.685,0.856-0.432,1.348c0.042,0.072,1.002,1.958,3.063,3.546c2.026,1.588,5.295,2.806,9.412,1.352   c0.021-0.008,0.042-0.016,0.064-0.023c0.748-0.265,1.519-0.611,2.322-1.049c0.482-0.267,0.662-0.874,0.396-1.357   C84.209,223.456,83.601,223.277,83.119,223.542z"/><path d="M132.318,15.386c-2.065-0.043-4.798,1.03-6.357,4.559c-0.231,0.502-0.008,1.093,0.494,1.324   c0.134,0.061,0.275,0.09,0.414,0.09c0.38,0,0.743-0.217,0.91-0.584c1.358-2.888,3.041-3.343,4.539-3.39   c0.69,0,1.328,0.14,1.783,0.282c0.455,0.143,0.684,0.271,0.688,0.263c0.494,0.251,1.096,0.058,1.347-0.433   c0.251-0.494,0.058-1.096-0.436-1.347C135.622,16.116,134.228,15.394,132.318,15.386z"/><path d="M122.662,19c0.124,0.051,0.252,0.074,0.379,0.074c0.394,0,0.769-0.233,0.926-0.619c2.115-5.032,5.222-5.9,7.766-5.951   c1.011,0,1.918,0.174,2.559,0.344c0.645,0.174,0.984,0.332,0.988,0.328c0.505,0.224,1.096-0.004,1.319-0.506   c0.225-0.505-0.004-1.096-0.505-1.319l-0.004-0.004c-0.073-0.027-1.888-0.838-4.357-0.842c-3.092-0.05-7.314,1.463-9.614,7.19   C121.906,18.205,122.149,18.791,122.662,19z"/><path d="M201.767,155.057c-0.241,0.499-0.031,1.095,0.468,1.337c0.14,0.066,0.287,0.099,0.432,0.099   c0.372,0,0.73-0.208,0.901-0.566c0.031-0.078,0.686-1.411,0.689-3.235c0.047-2.089-1.044-4.898-4.692-6.419   c-0.507-0.218-1.095,0.016-1.313,0.522c-0.218,0.507,0.016,1.096,0.522,1.313c2.981,1.333,3.438,3.056,3.484,4.583   c0,0.663-0.125,1.275-0.257,1.711C201.877,154.838,201.76,155.053,201.767,155.057z"/><path d="M206.53,155.446c-0.211,0.507,0.027,1.092,0.538,1.306c0.126,0.054,0.257,0.078,0.386,0.078   c0.392,0,0.762-0.23,0.924-0.612v-0.004c0.026-0.073,0.748-1.788,0.748-4.135c0.055-3.114-1.47-7.464-7.397-9.697   c-0.515-0.199-1.092,0.059-1.29,0.573c-0.199,0.515,0.059,1.095,0.572,1.294c5.196,2.054,6.062,5.254,6.115,7.83   c0.004,0.963-0.151,1.824-0.304,2.436C206.67,155.122,206.526,155.442,206.53,155.446z"/><path d="M6.62,62.121l12.217,7.43L8.297,76.72c-0.532,0.36-0.772,1.016-0.602,1.637c0.171,0.621,0.71,1.06,1.354,1.102   l16.297,0.997l-2.921,9.214c-0.183,0.582,0.004,1.218,0.474,1.605c0.275,0.23,0.615,0.348,0.957,0.348   c0.241,0,0.484-0.058,0.707-0.177l10.094-5.385c0.729-0.388,1.005-1.299,0.617-2.028c-0.392-0.729-1.3-1.009-2.029-0.617   l-6.847,3.65l2.39-7.537c0.14-0.438,0.07-0.924-0.19-1.304c-0.264-0.38-0.687-0.621-1.147-0.647l-13.834-0.846l8.833-6.01   c0.423-0.291,0.671-0.768,0.655-1.28c-0.012-0.512-0.283-0.977-0.718-1.241l-10.684-6.502l11.27-1.71   c0.485-0.074,0.904-0.377,1.121-0.819c0.218-0.441,0.206-0.958-0.034-1.389l-6.056-10.936l11.746,5.427   c0.458,0.214,1.001,0.179,1.428-0.093c0.431-0.268,0.694-0.741,0.698-1.249l0.124-9.741l5.33,6.242   c0.342,0.399,0.865,0.59,1.385,0.504c0.517-0.085,0.951-0.431,1.148-0.919l4.062-10.048l2.181,9.004   c0.194,0.803,1.005,1.3,1.808,1.105c0.807-0.197,1.3-1.009,1.106-1.812l-3.273-13.539c-0.155-0.636-0.698-1.094-1.351-1.145   c-0.648-0.046-1.253,0.33-1.497,0.936l-4.889,12.084l-6.315-7.395c-0.407-0.477-1.063-0.651-1.652-0.438   c-0.586,0.213-0.982,0.768-0.989,1.393l-0.144,11.417l-13.811-6.382c-0.59-0.271-1.288-0.132-1.73,0.342   c-0.438,0.473-0.528,1.179-0.214,1.749l7.235,13.058l-13.217,2.01c-0.621,0.093-1.121,0.57-1.242,1.188   C5.806,61.16,6.081,61.792,6.62,62.121z"/><path d="M61.371,16.413c0.695,1.437,1.427,3.753,2.191,6.948c0.721,2.943,1.799,5.633,3.228,8.058   c0.97,0.187,2.102-0.036,3.397-0.661c0.077-0.9-0.098-1.817-0.515-2.749c-0.564-1.23-1.067-2.995-1.506-5.292   c-0.431-2.208-0.944-4.598-1.548-7.181c-0.6-2.581-0.987-4.052-1.164-4.412c-0.217-0.454-0.659-0.76-1.317-0.911   c-0.655-0.151-1.245-0.105-1.764,0.143c-0.479,0.235-0.942,0.766-1.394,1.589c-0.447,0.823-0.51,1.738-0.192,2.746   C61.108,15.694,61.302,16.27,61.371,16.413z"/><path d="M68.348,37.215c-0.204,1.057-0.164,1.885,0.123,2.481c0.767,1.583,1.86,2.026,3.286,1.337   c0.479-0.233,0.971-0.755,1.474-1.566c0.502-0.813,0.606-1.672,0.311-2.586l-0.391-1.297c-0.144-0.298-0.65-0.5-1.519-0.608   c-0.867-0.108-1.522-0.055-1.961,0.159C68.996,35.459,68.556,36.153,68.348,37.215z"/><path d="M86.423,29.805c-0.846-0.133-1.481-0.1-1.893,0.101c-0.597,0.287-0.998,0.649-1.2,1.082   c-0.066,0.164-0.166,0.355-0.298,0.58c-0.693,1.211-0.893,2.117-0.606,2.714c0.353,0.725,0.924,1.195,1.712,1.403   c0.79,0.207,1.594,0.117,2.408-0.276c0.778-0.377,1.477-1.072,2.097-2.088c0.623-1.011,0.738-1.92,0.349-2.721   C88.498,29.577,87.639,29.313,86.423,29.805z"/><path d="M76.288,11.899c1.831-0.885,2.547-1.943,2.156-3.178c-0.098-0.369,0.017-0.848,0.348-1.439   c0.329-0.593,1.193-1.227,2.593-1.905c0.479-0.232,0.998-0.389,1.551-0.463c0.554-0.077,0.963-0.063,1.219,0.043   c0.261,0.109,0.675,0.486,1.24,1.142c0.564,0.655,0.952,1.202,1.163,1.643c0.301,0.622,0.452,1.325,0.449,2.109   c-0.003,0.786-0.187,1.386-0.546,1.798l-2.124,2.303c-1.347,1.451-2.237,2.472-2.678,3.072c-0.438,0.594-0.869,1.364-1.292,2.305   c-0.013,1.986,0.014,3.292,0.08,3.906c0.066,0.614,0.248,1.229,0.542,1.838c0.276,0.571,0.646,1.064,1.107,1.49   c0.462,0.424,0.872,0.551,1.236,0.373c1.112-0.539,1.823-1.084,2.135-1.635c0.309-0.548,0.365-1.191,0.169-1.928   c-0.355-1.392-0.576-2.631-0.668-3.705c2.706-2.701,4.46-4.547,5.261-5.537c0.8-0.987,1.295-2.281,1.478-3.881   c0.187-1.602-0.189-3.367-1.125-5.295l-0.008-0.02c-0.873-1.737-1.701-2.921-2.483-3.549c-0.786-0.629-2.114-1.072-3.983-1.335   c-1.144-0.182-2.425,0.111-3.846,0.879c-0.738,0.39-1.479,0.774-2.227,1.149c-1.062,0.545-1.933,1.352-2.617,2.42l0.018-0.01   c-0.85,1.184-1.441,2.398-1.769,3.651c-0.325,1.255-0.324,2.226,0.007,2.913C74.225,12.195,75.099,12.475,76.288,11.899z"/></g></svg>
