<svg xmlns="http://www.w3.org/2000/svg" xmlns:xlink="http://www.w3.org/1999/xlink" version="1.1" x="0px" y="0px" viewBox="0 0 64 80" style="enable-background:new 0 0 64 64;" xml:space="preserve"><style type="text/css">
	.st0{display:none;}
	.st1{display:inline;}
	.st2{fill:none;stroke:#B3B3B3;stroke-width:0.1;stroke-miterlimit:10;}
</style><g class="st0"><g class="st1"><rect x="2" y="2" class="st2" width="60" height="60"/><line class="st2" x1="32" y1="2" x2="32" y2="62"/><line class="st2" x1="62" y1="32" x2="2" y2="32"/><line class="st2" x1="2" y1="2" x2="62" y2="62"/><rect x="10" y="10" class="st2" width="44" height="44"/><line class="st2" x1="62" y1="2" x2="2" y2="62"/><line class="st2" x1="2" y1="32" x2="32" y2="2"/><line class="st2" x1="32" y1="2" x2="62" y2="32"/><line class="st2" x1="62" y1="32" x2="32" y2="62"/><line class="st2" x1="32" y1="62" x2="2" y2="32"/><circle class="st2" cx="32" cy="32" r="21"/></g></g><path d="M59,26H49V15c0-1.7-1.3-3-3-3H34V5c0-1.7-1.3-3-3-3H5C3.3,2,2,3.3,2,5v14c0,1.7,1.3,3,3,3h12v7c0,1.7,1.3,3,3,3h10v10H14  c-1.7,0-3,1.3-3,3v14c0,1.7,1.3,3,3,3h26c1.7,0,3-1.3,3-3V46h16c1.7,0,3-1.3,3-3V29C62,27.3,60.7,26,59,26z M59,28c0.6,0,1,0.4,1,1  v0.4l-14,6.5L37.6,32H46c1.7,0,3-1.3,3-3v-1H59z M60,31.6v8.9L50.5,36L60,31.6z M47,26.4L37.5,22l9.5-4.4V26.4z M46,14  c0.6,0,1,0.4,1,1v0.4l-14,6.5l-0.6-0.3c0.9-0.5,1.6-1.5,1.6-2.6v-5H46z M32,16.4L22.5,12L32,7.6V16.4z M5,4h26c0.6,0,1,0.4,1,1v0.4  l-14,6.5L4,5.4V5C4,4.4,4.4,4,5,4z M13.5,12L4,16.4V7.6L13.5,12z M4,19v-0.4l11.8-5.5l2.2,1l2.2-1L32,18.6V19c0,0.6-0.4,1-1,1H5  C4.4,20,4,19.6,4,19z M28.5,22L28.5,22L19,26.4V22H28.5z M19,29v-0.4l11.8-5.5l2.2,1l2.2-1L47,28.6V29c0,0.6-0.4,1-1,1H20  C19.4,30,19,29.6,19,29z M32.9,32l8.6,4L32,40.4V32H32.9z M14,44h16.2c0.4,1.2,1.5,2,2.8,2h6.7L27,51.9l-14-6.5V45  C13,44.4,13.4,44,14,44z M41,47.6v8.9L31.5,52L41,47.6z M22.5,52L13,56.4v-8.9L22.5,52z M40,60H14c-0.6,0-1-0.4-1-1v-0.4l11.8-5.5  l2.2,1l2.2-1L41,58.6V59C41,59.6,40.6,60,40,60z M59,44H33c-0.6,0-1-0.4-1-1v-0.4l11.8-5.5l2.2,1l2.2-1L60,42.6V43  C60,43.6,59.6,44,59,44z"/>s</svg>
