<svg xmlns="http://www.w3.org/2000/svg" xmlns:xlink="http://www.w3.org/1999/xlink" version="1.1" x="0px" y="0px" viewBox="0 0 100 125" style="enable-background:new 0 0 100 100;" xml:space="preserve"><path d="M83.835,93.518c0.035-0.056,0.072-0.108,0.095-0.171c0.023-0.061,0.028-0.125,0.038-0.191C83.977,93.103,84,93.055,84,93  c0-0.015-0.008-0.028-0.009-0.043c-0.001-0.014,0.006-0.027,0.005-0.042c-0.326-3.828-1.527-11.17-5.902-17.332  c-0.052-0.073-0.104-0.138-0.156-0.21l-3.297-30.492c0.062-0.031,0.127-0.056,0.184-0.101l4.052-3.246  c0.771-0.618,1.179-1.53,1.117-2.501c-0.061-0.962-0.598-1.843-1.436-2.356l-8.818-5.396l-7.809-13.667L58.965,6.737  c-0.009-0.033-0.032-0.056-0.044-0.088c-0.024-0.063-0.053-0.121-0.09-0.179c-0.037-0.058-0.077-0.109-0.124-0.157  c-0.023-0.024-0.035-0.055-0.061-0.077c-0.024-0.021-0.055-0.026-0.081-0.044c-0.054-0.038-0.109-0.067-0.17-0.094  c-0.062-0.027-0.123-0.05-0.188-0.064c-0.057-0.013-0.114-0.017-0.173-0.019c-0.072-0.002-0.14,0.001-0.21,0.014  c-0.029,0.005-0.057-0.002-0.086,0.006c-0.032,0.009-0.055,0.031-0.086,0.043c-0.064,0.024-0.123,0.054-0.182,0.091  c-0.057,0.037-0.108,0.076-0.156,0.123c-0.024,0.023-0.055,0.035-0.078,0.061l-11,13c-0.025,0.029-0.048,0.06-0.069,0.091  L38.29,31.262l-8.849,5.415c-0.838,0.512-1.375,1.393-1.436,2.355c-0.062,0.972,0.346,1.884,1.117,2.502l4.052,3.246  c0.057,0.045,0.122,0.07,0.184,0.102l-3.285,30.385c-0.003,0.026,0.008,0.05,0.007,0.076c-0.06,0.083-0.122,0.16-0.182,0.245  c-1.063,1.499-1.997,3.177-2.8,4.985c-0.187-0.142-0.365-0.293-0.567-0.42c-0.022-0.014-0.048-0.015-0.071-0.027  c-0.061-0.032-0.124-0.053-0.192-0.072c-0.063-0.018-0.124-0.033-0.188-0.038C26.053,80.014,26.029,80,26,80V63c0,0,0,0,0,0  c0,0,0.001,0,0.001,0c0.15,0,0.303-0.034,0.446-0.105l2-1C28.786,61.725,29,61.379,29,61v-2.382l1.447-0.724  c0.494-0.247,0.694-0.848,0.447-1.342c-0.247-0.493-0.846-0.693-1.342-0.447l-1.316,0.658l0.658-1.316  c0.114-0.228,0.137-0.49,0.063-0.734l-3-10C25.831,44.29,25.441,44,25,44h-3c-0.441,0-0.831,0.29-0.958,0.713l-3,10  c-0.073,0.244-0.05,0.507,0.063,0.734l0.658,1.316l-1.316-0.658c-0.496-0.246-1.095-0.046-1.342,0.447  c-0.247,0.494-0.047,1.095,0.447,1.342L18,58.618V61c0,0.379,0.214,0.725,0.553,0.895l2,1C20.696,62.966,20.849,63,20.999,63  c0,0,0.001,0,0.001,0c0,0,0,0,0,0v13.276c-0.89,0.39-1.491,1.043-1.8,1.457c-0.87,1.159-1.122,2.479-1.194,3.161  c-0.002,0.018,0.006,0.035,0.005,0.053C18.01,80.965,18,80.981,18,81v12c0,0.553,0.448,1,1,1h5h16h28h15c0,0,0,0,0,0  c0.028,0,0.056-0.001,0.085-0.004c0.053-0.005,0.096-0.031,0.146-0.043c0.067-0.016,0.134-0.028,0.196-0.057  c0.057-0.027,0.103-0.066,0.153-0.103c0.053-0.039,0.108-0.074,0.152-0.123C83.774,93.625,83.802,93.571,83.835,93.518z M81.894,92  H69V70.433c2.179,0.927,4.93,2.742,7.463,6.308C80.188,81.987,81.459,88.189,81.894,92z M56.352,51.063  c-0.058-0.021-0.117-0.017-0.175-0.028C56.117,51.025,56.063,51,56,51c-0.007,0-0.013,0.004-0.021,0.004  c-0.076,0.002-0.147,0.026-0.22,0.044c-0.054,0.014-0.112,0.016-0.162,0.038c-0.057,0.025-0.102,0.068-0.153,0.103  c-0.054,0.037-0.114,0.066-0.16,0.114c-0.037,0.037-0.058,0.088-0.089,0.132c-0.045,0.063-0.093,0.123-0.122,0.196  c-0.003,0.007-0.008,0.011-0.011,0.018c-0.022,0.059-0.018,0.119-0.029,0.179C55.024,51.885,55,51.939,55,52v1h-2v-1  c0-0.062-0.024-0.115-0.035-0.174c-0.01-0.06-0.007-0.119-0.029-0.178c-0.003-0.007-0.008-0.011-0.011-0.017  c-0.029-0.072-0.077-0.131-0.121-0.194c-0.031-0.044-0.053-0.096-0.09-0.134c-0.046-0.048-0.107-0.077-0.162-0.115  c-0.05-0.034-0.095-0.077-0.15-0.101c-0.052-0.023-0.112-0.026-0.169-0.04c-0.071-0.017-0.139-0.041-0.212-0.043  C52.014,51.004,52.007,51,52,51c-0.063,0-0.118,0.025-0.178,0.036c-0.058,0.01-0.116,0.006-0.173,0.028l-7.46,2.798  c-0.514-0.445-0.983-0.939-1.399-1.475c-0.816-1.05-1.415-2.243-1.79-3.543V38.774c8.627-1.018,17.379-1.018,26,0v10.069  c-0.376,1.302-0.974,2.495-1.79,3.544c-0.414,0.534-0.884,1.028-1.398,1.475L56.352,51.063z M69,68.284V39.034  c1.018,0.139,2.034,0.289,3.047,0.456l3.584,33.153C73.266,70.254,70.89,68.972,69,68.284z M63.284,24.012l0.403,0.705l-1.123-0.225  L63.284,24.012z M30.373,39.974c-0.256-0.206-0.392-0.502-0.372-0.815c0.02-0.317,0.196-0.6,0.483-0.776l9.037-5.53  c0.012-0.008,0.018-0.02,0.03-0.028c0.087-0.058,0.166-0.13,0.233-0.216c0.011-0.014,0.024-0.025,0.034-0.039  c0.004-0.006,0.009-0.009,0.013-0.015L47.8,20.603l9.735-11.505l2.5,9.166c0.022,0.082,0.055,0.16,0.097,0.233l2.158,3.776  l-2.844,1.896c-0.337,0.224-0.505,0.629-0.427,1.026c0.079,0.397,0.389,0.708,0.785,0.787l5,1c0.063,0.013,0.125,0.018,0.187,0.018  l3.141,5.497c0.011,0.019,0.027,0.033,0.039,0.051c0.017,0.026,0.036,0.048,0.055,0.072c0.067,0.084,0.143,0.156,0.229,0.212  c0.009,0.006,0.014,0.016,0.024,0.022l9.037,5.53c0.286,0.176,0.463,0.458,0.482,0.776c0.021,0.313-0.115,0.609-0.371,0.814  l-3.236,2.592l-0.293-2.712c0.238,0.044,0.476,0.083,0.713,0.128C74.875,39.994,74.938,40,75.001,40c0.47,0,0.889-0.333,0.981-0.812  c0.104-0.542-0.251-1.066-0.794-1.17c-13.938-2.678-28.427-2.68-42.377,0c-0.542,0.104-0.898,0.628-0.793,1.17  c0.104,0.542,0.63,0.901,1.17,0.793c0.237-0.046,0.476-0.084,0.713-0.128l-0.293,2.712L30.373,39.974z M35.953,39.49  c1.013-0.168,2.029-0.317,3.047-0.456v29.249c-1.89,0.686-4.266,1.966-6.63,4.353L35.953,39.49z M31.53,76.744  c2.535-3.572,5.289-5.388,7.47-6.313V92H27.841c1.054-1.018,1.817-2.323,2.136-3.787c0.471-2.16-0.075-4.374-1.363-6.107  C29.429,80.139,30.405,78.332,31.53,76.744z M22,62c-0.003,0-0.006,0.002-0.01,0.002c0-0.001,0-0.002,0-0.003  C21.993,61.999,21.997,62,22,62h3c0.003,0,0.007-0.001,0.01-0.001c0,0.001,0,0.002,0,0.003C25.006,62.002,25.003,62,25,62  c-0.552,0-1,0.447-1,1v17h-1V63C23,62.447,22.552,62,22,62z M27,60.382l-0.764,0.382L27,59.236V60.382z M22.744,46h1.512  l2.672,8.907L24.382,60h-1.764l-2.546-5.093L22.744,46z M20,60.382v-1.146l0.764,1.527L20,60.382z M21,78.695V80h-0.745  c0.122-0.35,0.287-0.723,0.546-1.068C20.847,78.87,20.914,78.787,21,78.695z M20,82h5.675c1.881,1.302,2.827,3.589,2.348,5.787  c-0.448,2.054-2.08,3.697-4.166,4.213H20V82z M41,92V53.313c0.072,0.099,0.135,0.203,0.21,0.3c0.63,0.812,1.362,1.544,2.176,2.176  C43.564,55.928,43.781,56,44,56c0.118,0,0.237-0.021,0.351-0.063L51,53.443V54c0,0.553,0.447,1,1,1h4c0.553,0,1-0.447,1-1v-0.557  l6.648,2.493C63.763,55.979,63.882,56,64,56c0.219,0,0.436-0.072,0.614-0.211c0.815-0.635,1.548-1.366,2.175-2.176  c0.075-0.097,0.139-0.202,0.211-0.301V92H41z"/><path d="M51,43h-8c-0.552,0-1,0.448-1,1s0.448,1,1,1h2c0,1.104,0.896,2,2,2h0.01c1.104,0,1.995-0.896,1.995-2H51  c0.553,0,1-0.448,1-1S51.553,43,51,43z"/><path d="M66,44c0-0.552-0.447-1-1-1h-8c-0.553,0-1,0.448-1,1s0.447,1,1,1h2c0,1.104,0.896,2,2,2h0.01c1.104,0,1.995-0.896,1.995-2  H65C65.553,45,66,44.552,66,44z"/><path d="M54.737,56.324c-0.379-0.414-1.096-0.414-1.475,0l-11,12c-0.373,0.407-0.346,1.04,0.062,1.413  c0.408,0.373,1.04,0.345,1.413-0.062L54,58.479l10.263,11.196C64.46,69.891,64.729,70,65,70c0.241,0,0.483-0.087,0.676-0.263  c0.407-0.373,0.435-1.006,0.062-1.413L54.737,56.324z"/><path d="M23.895,57.447l1-2c0.247-0.494,0.047-1.095-0.447-1.342c-0.496-0.245-1.095-0.047-1.342,0.447l-1,2  c-0.247,0.494-0.047,1.095,0.447,1.342C22.696,57.966,22.849,58,22.999,58C23.366,58,23.719,57.798,23.895,57.447z"/><path d="M54,46c-0.553,0-1,0.448-1,1v2c0,0.552,0.447,1,1,1s1-0.448,1-1v-2C55,46.448,54.553,46,54,46z"/></svg>
