<svg xmlns="http://www.w3.org/2000/svg" xmlns:xlink="http://www.w3.org/1999/xlink" version="1.1" x="0px" y="0px" viewBox="0 0 64 80" enable-background="new 0 0 64 64" xml:space="preserve"><g><path d="M52,8l-0.2,0c-1.7,0-3.2,0.7-4.4,1.9c-1.2,1.2-1.9,2.9-1.9,4.6v9.2c-0.8-0.3-1.6-0.5-2.5-0.5c-1.7,0-3.3,0.6-4.5,1.8   c-1.2-1.1-2.8-1.8-4.5-1.8c-0.9,0-1.7,0.2-2.5,0.5V7.7c0-3.6-3-6.7-6.5-6.7l-0.2,0c-1.7,0-3.2,0.7-4.4,1.9   c-1.2,1.2-1.9,2.9-1.9,4.6v33.2c-1.7-1-3.9-2-6-2c-1.6,0-3.1,0.5-4.3,1.5c-0.1,0-0.1,0.1-0.2,0.1c-1.6,1.6-2.5,3.7-2.5,6   s0.9,4.4,2.5,6c0,0,0,0,0.1,0.1l7.7,7c2.5,2.3,5.8,3.6,9.2,3.6h16.2c9.5,0,17.3-7.7,17.3-17.3v-31C58.5,11.1,55.5,8,52,8z    M54.5,45.8c0,7.3-5.9,13.3-13.3,13.3H25c-2.4,0-4.7-0.9-6.5-2.5l-7.7-7c-0.8-0.8-1.3-2-1.3-3.2c0-1.2,0.4-2.3,1.2-3.1   c0.5-0.4,1-0.5,1.7-0.5c2.5,0,5.7,2.5,6.7,3.4c0.6,0.6,1.4,0.7,2.2,0.4c0.7-0.3,1.2-1,1.2-1.8V7.5c0-0.7,0.3-1.3,0.7-1.8   C23.7,5.3,24.3,5,25,5c1.3,0,2.5,1.3,2.5,2.7v22c0,1.1,0.9,2,2,2s2-0.9,2-2c0-0.7,0.3-1.3,0.7-1.8c0.5-0.5,1.1-0.7,1.8-0.7   c1.4,0,2.5,1.1,2.5,2.5c0,1.1,0.9,2,2,2s2-0.9,2-2c0-0.7,0.3-1.3,0.7-1.8c0.5-0.5,1.1-0.7,1.8-0.7c1.4,0,2.5,1.1,2.5,2.5   c0,1.1,0.9,2,2,2s2-0.9,2-2V14.5c0-0.7,0.3-1.3,0.7-1.8c0.4-0.4,1-0.7,1.7-0.7c1.3,0,2.5,1.3,2.5,2.7V45.8z"/></g></svg>
