<svg class="icon" style="fill: currentColor;overflow: hidden;" viewBox="0 0 1024 1024" version="1.1" xmlns="http://www.w3.org/2000/svg"><path d="M405.723429 747.446857q0 37.741714-53.174857 37.741714-61.147429 0-61.147429-35.986286 0-36.571429 56.027429-36.571429 58.294857 0 58.294857 34.889143zM385.170286 481.133714q0 48.566857-42.276571 48.566857-44.032 0-44.032-47.981714 0-51.419429 44.032-51.419429 20.553143 0 31.451429 14.555429t10.825143 36.278857zM479.963429 438.272l0-71.460571q-44.544 16.603429-77.165714 16.603429-28.598857-16.603429-62.829714-16.603429-49.152 0-82.870857 32.548571t-33.718857 81.700571q0 28.598857 16.822857 58.294857t41.984 38.253714l0 1.682286q-21.723429 9.728-21.723429 48.566857 0 30.281143 23.405714 44.032l0 1.682286q-64.585143 21.138286-64.585143 79.433143 0 25.746286 11.410286 44.836571t30.866286 29.110857 41.179429 14.555429 46.299429 4.534857q128 0 128-107.446857 0-38.253714-27.428571-56.539429t-71.972571-26.258286q-15.433143-2.852571-29.403429-11.702857t-13.970286-22.601143q0-25.161143 28.013714-29.696 44.032-8.557714 69.705143-40.009143t25.746286-76.580571q0-13.677714-5.705143-29.696 21.138286-5.12 28.013714-7.460571zM513.682286 677.741714l78.262857 0q-1.170286-15.433143-1.170286-46.884571l0-221.110857q0-26.258286 1.170286-39.424l-78.262857 0q1.682286 13.165714 1.682286 40.594286l0 224.036571q0 28.598857-1.682286 42.861714zM804.571429 668.598857l0-69.12q-17.115429 11.995429-38.838857 11.995429-30.281143 0-30.281143-46.884571l0-128.585143 29.696 0q5.12 0 15.140571 0.585143t15.140571 0.585143l0-66.852571-59.977143 0q0-46.884571 1.682286-58.294857l-80.018286 0q2.267429 13.677714 2.267429 31.451429l0 26.843429-34.304 0 0 66.852571q20.553143-1.682286 21.138286-1.682286 1.682286 0 6.290286 0.292571t6.875429 0.292571l0 1.170286-1.170286 0 0 123.977143q0 21.138286 1.462857 36.571429t6.582857 32.256 13.970286 27.721143 24.868571 17.700571 37.741714 6.875429q36.571429 0 61.732571-13.677714zM601.161143 265.142857q0-20.553143-13.677714-36.278857t-34.304-15.725714-34.596571 15.433143-13.970286 36.571429q0 20.553143 14.262857 35.693714t34.304 15.140571 34.011429-15.433143 13.970286-35.401143zM950.857143 237.714286l0 548.571429q0 68.022857-48.274286 116.297143t-116.297143 48.274286l-548.571429 0q-68.022857 0-116.297143-48.274286t-48.274286-116.297143l0-548.571429q0-68.022857 48.274286-116.297143t116.297143-48.274286l548.571429 0q68.022857 0 116.297143 48.274286t48.274286 116.297143z" /></svg>
